<mxfile host="app.diagrams.net" modified="2023-04-27T21:30:03.835Z" agent="Mozilla/5.0 (Windows NT 10.0; Win64; x64) AppleWebKit/537.36 (KHTML, like Gecko) Chrome/112.0.0.0 Safari/537.36" etag="5X7As4FQMt7-HgUHeHLI" version="21.2.3" type="google">
  <diagram name="Halaman-1" id="p3BwSS4w-2dqsIWzWoCX">
    <mxGraphModel grid="1" page="1" gridSize="10" guides="1" tooltips="1" connect="1" arrows="1" fold="1" pageScale="1" pageWidth="850" pageHeight="1100" math="0" shadow="0">
      <root>
        <mxCell id="0" />
        <mxCell id="1" parent="0" />
        <mxCell id="39VwRnX8yQjaLsYdGuqC-47" style="edgeStyle=orthogonalEdgeStyle;rounded=0;orthogonalLoop=1;jettySize=auto;html=1;exitX=0;exitY=0.5;exitDx=0;exitDy=0;entryX=1;entryY=0.5;entryDx=0;entryDy=0;endArrow=none;endFill=0;" edge="1" parent="1" source="39VwRnX8yQjaLsYdGuqC-1" target="39VwRnX8yQjaLsYdGuqC-2">
          <mxGeometry relative="1" as="geometry" />
        </mxCell>
        <mxCell id="39VwRnX8yQjaLsYdGuqC-238" style="edgeStyle=orthogonalEdgeStyle;rounded=0;orthogonalLoop=1;jettySize=auto;html=1;exitX=1;exitY=0.75;exitDx=0;exitDy=0;entryX=0;entryY=0.5;entryDx=0;entryDy=0;endArrow=none;endFill=0;" edge="1" parent="1" source="39VwRnX8yQjaLsYdGuqC-1" target="39VwRnX8yQjaLsYdGuqC-5">
          <mxGeometry relative="1" as="geometry" />
        </mxCell>
        <mxCell id="G-jf58LWq5bppQnvcWUJ-150" style="edgeStyle=orthogonalEdgeStyle;rounded=0;orthogonalLoop=1;jettySize=auto;html=1;exitX=0.25;exitY=0;exitDx=0;exitDy=0;entryX=1;entryY=1;entryDx=0;entryDy=0;endArrow=none;endFill=0;" edge="1" parent="1" source="39VwRnX8yQjaLsYdGuqC-1" target="39VwRnX8yQjaLsYdGuqC-11">
          <mxGeometry relative="1" as="geometry" />
        </mxCell>
        <mxCell id="G-jf58LWq5bppQnvcWUJ-154" style="edgeStyle=orthogonalEdgeStyle;rounded=0;orthogonalLoop=1;jettySize=auto;html=1;exitX=0.25;exitY=1;exitDx=0;exitDy=0;entryX=1;entryY=0;entryDx=0;entryDy=0;" edge="1" parent="1" source="39VwRnX8yQjaLsYdGuqC-1" target="39VwRnX8yQjaLsYdGuqC-240">
          <mxGeometry relative="1" as="geometry">
            <Array as="points">
              <mxPoint x="204" y="200" />
              <mxPoint y="200" />
            </Array>
          </mxGeometry>
        </mxCell>
        <mxCell id="39VwRnX8yQjaLsYdGuqC-1" value="JABATAN" style="whiteSpace=wrap;html=1;align=center;" vertex="1" parent="1">
          <mxGeometry x="186.5" y="140" width="70" height="40" as="geometry" />
        </mxCell>
        <mxCell id="39VwRnX8yQjaLsYdGuqC-2" value="Nama&amp;nbsp;&lt;br&gt;jabatan" style="ellipse;whiteSpace=wrap;html=1;align=center;" vertex="1" parent="1">
          <mxGeometry x="6.5" y="140" width="100" height="40" as="geometry" />
        </mxCell>
        <mxCell id="39VwRnX8yQjaLsYdGuqC-5" value="#Kode_Jabatan" style="ellipse;whiteSpace=wrap;html=1;align=center;" vertex="1" parent="1">
          <mxGeometry x="281" y="150" width="100" height="40" as="geometry" />
        </mxCell>
        <mxCell id="39VwRnX8yQjaLsYdGuqC-6" value="Nama Penempatan" style="ellipse;whiteSpace=wrap;html=1;align=center;" vertex="1" parent="1">
          <mxGeometry x="330" y="-125" width="100" height="40" as="geometry" />
        </mxCell>
        <mxCell id="39VwRnX8yQjaLsYdGuqC-7" value="Nama Karyawan" style="ellipse;whiteSpace=wrap;html=1;align=center;" vertex="1" parent="1">
          <mxGeometry x="110" y="-271" width="100" height="40" as="geometry" />
        </mxCell>
        <mxCell id="39VwRnX8yQjaLsYdGuqC-10" value="#Kode_Jabatan" style="ellipse;whiteSpace=wrap;html=1;align=center;" vertex="1" parent="1">
          <mxGeometry x="290" y="-61" width="100" height="40" as="geometry" />
        </mxCell>
        <mxCell id="39VwRnX8yQjaLsYdGuqC-11" value="Keterangan kerja" style="ellipse;whiteSpace=wrap;html=1;align=center;" vertex="1" parent="1">
          <mxGeometry x="66.5" y="80" width="100" height="40" as="geometry" />
        </mxCell>
        <mxCell id="39VwRnX8yQjaLsYdGuqC-26" style="edgeStyle=orthogonalEdgeStyle;rounded=0;orthogonalLoop=1;jettySize=auto;html=1;exitX=0.25;exitY=0;exitDx=0;exitDy=0;entryX=0.5;entryY=1;entryDx=0;entryDy=0;endArrow=none;endFill=0;" edge="1" parent="1" source="39VwRnX8yQjaLsYdGuqC-16" target="39VwRnX8yQjaLsYdGuqC-7">
          <mxGeometry relative="1" as="geometry" />
        </mxCell>
        <mxCell id="39VwRnX8yQjaLsYdGuqC-28" style="edgeStyle=orthogonalEdgeStyle;rounded=0;orthogonalLoop=1;jettySize=auto;html=1;exitX=0;exitY=1;exitDx=0;exitDy=0;entryX=1;entryY=0.5;entryDx=0;entryDy=0;endArrow=none;endFill=0;" edge="1" parent="1" source="39VwRnX8yQjaLsYdGuqC-16" target="39VwRnX8yQjaLsYdGuqC-23">
          <mxGeometry relative="1" as="geometry" />
        </mxCell>
        <mxCell id="39VwRnX8yQjaLsYdGuqC-29" style="edgeStyle=orthogonalEdgeStyle;rounded=0;orthogonalLoop=1;jettySize=auto;html=1;exitX=0.25;exitY=1;exitDx=0;exitDy=0;entryX=1;entryY=0.5;entryDx=0;entryDy=0;endArrow=none;endFill=0;" edge="1" parent="1" source="39VwRnX8yQjaLsYdGuqC-16" target="39VwRnX8yQjaLsYdGuqC-24">
          <mxGeometry relative="1" as="geometry" />
        </mxCell>
        <mxCell id="39VwRnX8yQjaLsYdGuqC-30" style="edgeStyle=orthogonalEdgeStyle;rounded=0;orthogonalLoop=1;jettySize=auto;html=1;exitX=1;exitY=1;exitDx=0;exitDy=0;entryX=0;entryY=0;entryDx=0;entryDy=0;endArrow=none;endFill=0;" edge="1" parent="1" source="39VwRnX8yQjaLsYdGuqC-16" target="39VwRnX8yQjaLsYdGuqC-10">
          <mxGeometry relative="1" as="geometry" />
        </mxCell>
        <mxCell id="39VwRnX8yQjaLsYdGuqC-31" style="edgeStyle=orthogonalEdgeStyle;rounded=0;orthogonalLoop=1;jettySize=auto;html=1;exitX=1;exitY=0.5;exitDx=0;exitDy=0;entryX=0;entryY=0.5;entryDx=0;entryDy=0;endArrow=none;endFill=0;" edge="1" parent="1" source="39VwRnX8yQjaLsYdGuqC-16">
          <mxGeometry relative="1" as="geometry">
            <mxPoint x="330" y="-101" as="targetPoint" />
          </mxGeometry>
        </mxCell>
        <mxCell id="39VwRnX8yQjaLsYdGuqC-33" style="edgeStyle=orthogonalEdgeStyle;rounded=0;orthogonalLoop=1;jettySize=auto;html=1;exitX=0.75;exitY=0;exitDx=0;exitDy=0;entryX=0.375;entryY=1.088;entryDx=0;entryDy=0;entryPerimeter=0;endArrow=none;endFill=0;" edge="1" parent="1" source="39VwRnX8yQjaLsYdGuqC-16" target="39VwRnX8yQjaLsYdGuqC-22">
          <mxGeometry relative="1" as="geometry" />
        </mxCell>
        <mxCell id="G-jf58LWq5bppQnvcWUJ-147" style="edgeStyle=orthogonalEdgeStyle;rounded=0;orthogonalLoop=1;jettySize=auto;html=1;exitX=0.5;exitY=1;exitDx=0;exitDy=0;entryX=0.5;entryY=0;entryDx=0;entryDy=0;endArrow=none;endFill=0;" edge="1" parent="1" source="39VwRnX8yQjaLsYdGuqC-16" target="39VwRnX8yQjaLsYdGuqC-34">
          <mxGeometry relative="1" as="geometry" />
        </mxCell>
        <mxCell id="39VwRnX8yQjaLsYdGuqC-16" value="KARYAWAN" style="whiteSpace=wrap;html=1;align=center;" vertex="1" parent="1">
          <mxGeometry x="170" y="-171" width="100" height="40" as="geometry" />
        </mxCell>
        <mxCell id="39VwRnX8yQjaLsYdGuqC-22" value="Alamat" style="ellipse;shape=doubleEllipse;margin=3;whiteSpace=wrap;html=1;align=center;" vertex="1" parent="1">
          <mxGeometry x="230" y="-261" width="100" height="40" as="geometry" />
        </mxCell>
        <mxCell id="39VwRnX8yQjaLsYdGuqC-23" value="Tanggal Lahir" style="ellipse;shape=doubleEllipse;margin=3;whiteSpace=wrap;html=1;align=center;" vertex="1" parent="1">
          <mxGeometry x="30" y="-111" width="100" height="40" as="geometry" />
        </mxCell>
        <mxCell id="39VwRnX8yQjaLsYdGuqC-24" value="Umur" style="ellipse;whiteSpace=wrap;html=1;align=center;dashed=1;" vertex="1" parent="1">
          <mxGeometry x="70" y="-61" width="100" height="40" as="geometry" />
        </mxCell>
        <mxCell id="G-jf58LWq5bppQnvcWUJ-151" style="edgeStyle=orthogonalEdgeStyle;rounded=0;orthogonalLoop=1;jettySize=auto;html=1;exitX=0.5;exitY=1;exitDx=0;exitDy=0;entryX=0.5;entryY=0;entryDx=0;entryDy=0;endArrow=none;endFill=0;" edge="1" parent="1" target="39VwRnX8yQjaLsYdGuqC-1">
          <mxGeometry relative="1" as="geometry">
            <mxPoint x="220" y="45" as="sourcePoint" />
          </mxGeometry>
        </mxCell>
        <mxCell id="39VwRnX8yQjaLsYdGuqC-34" value="memiliki" style="shape=rhombus;perimeter=rhombusPerimeter;whiteSpace=wrap;html=1;align=center;" vertex="1" parent="1">
          <mxGeometry x="161" y="-15" width="120" height="60" as="geometry" />
        </mxCell>
        <mxCell id="39VwRnX8yQjaLsYdGuqC-39" value="1" style="text;html=1;align=center;verticalAlign=middle;resizable=0;points=[];autosize=1;strokeColor=#d79b00;fillColor=#ffe6cc;" vertex="1" parent="1">
          <mxGeometry x="236.5" y="100" width="30" height="30" as="geometry" />
        </mxCell>
        <mxCell id="39VwRnX8yQjaLsYdGuqC-40" value="M" style="text;html=1;align=center;verticalAlign=middle;resizable=0;points=[];autosize=1;strokeColor=#d79b00;fillColor=#ffe6cc;" vertex="1" parent="1">
          <mxGeometry x="226.5" y="-121" width="30" height="30" as="geometry" />
        </mxCell>
        <mxCell id="39VwRnX8yQjaLsYdGuqC-59" style="edgeStyle=orthogonalEdgeStyle;rounded=0;orthogonalLoop=1;jettySize=auto;html=1;exitX=0.25;exitY=0;exitDx=0;exitDy=0;entryX=0.61;entryY=1.009;entryDx=0;entryDy=0;entryPerimeter=0;endArrow=none;endFill=0;" edge="1" parent="1" source="39VwRnX8yQjaLsYdGuqC-48" target="39VwRnX8yQjaLsYdGuqC-57">
          <mxGeometry relative="1" as="geometry" />
        </mxCell>
        <mxCell id="39VwRnX8yQjaLsYdGuqC-60" style="edgeStyle=orthogonalEdgeStyle;rounded=0;orthogonalLoop=1;jettySize=auto;html=1;exitX=0;exitY=0.5;exitDx=0;exitDy=0;entryX=1;entryY=0.5;entryDx=0;entryDy=0;endArrow=none;endFill=0;" edge="1" parent="1" source="39VwRnX8yQjaLsYdGuqC-48" target="39VwRnX8yQjaLsYdGuqC-56">
          <mxGeometry relative="1" as="geometry" />
        </mxCell>
        <mxCell id="39VwRnX8yQjaLsYdGuqC-61" style="edgeStyle=orthogonalEdgeStyle;rounded=0;orthogonalLoop=1;jettySize=auto;html=1;exitX=0.25;exitY=1;exitDx=0;exitDy=0;entryX=0.5;entryY=0;entryDx=0;entryDy=0;endArrow=none;endFill=0;" edge="1" parent="1" source="39VwRnX8yQjaLsYdGuqC-48" target="39VwRnX8yQjaLsYdGuqC-58">
          <mxGeometry relative="1" as="geometry" />
        </mxCell>
        <mxCell id="39VwRnX8yQjaLsYdGuqC-48" value="DAFTAR BARANG TREN" style="whiteSpace=wrap;html=1;align=center;" vertex="1" parent="1">
          <mxGeometry x="-570" y="-51" width="100" height="40" as="geometry" />
        </mxCell>
        <mxCell id="39VwRnX8yQjaLsYdGuqC-62" style="edgeStyle=orthogonalEdgeStyle;rounded=0;orthogonalLoop=1;jettySize=auto;html=1;exitX=0.5;exitY=1;exitDx=0;exitDy=0;entryX=0.629;entryY=-0.076;entryDx=0;entryDy=0;entryPerimeter=0;endArrow=none;endFill=0;" edge="1" parent="1" source="39VwRnX8yQjaLsYdGuqC-55" target="39VwRnX8yQjaLsYdGuqC-48">
          <mxGeometry relative="1" as="geometry" />
        </mxCell>
        <mxCell id="39VwRnX8yQjaLsYdGuqC-55" value="Nama Barang" style="ellipse;whiteSpace=wrap;html=1;align=center;" vertex="1" parent="1">
          <mxGeometry x="-520" y="-141" width="100" height="40" as="geometry" />
        </mxCell>
        <mxCell id="39VwRnX8yQjaLsYdGuqC-56" value="Perkiraan Lama Tren" style="ellipse;whiteSpace=wrap;html=1;align=center;" vertex="1" parent="1">
          <mxGeometry x="-720" y="-61" width="130" height="60" as="geometry" />
        </mxCell>
        <mxCell id="39VwRnX8yQjaLsYdGuqC-57" value="#Kode_tren" style="ellipse;whiteSpace=wrap;html=1;align=center;" vertex="1" parent="1">
          <mxGeometry x="-640" y="-131" width="100" height="40" as="geometry" />
        </mxCell>
        <mxCell id="39VwRnX8yQjaLsYdGuqC-58" value="Tanggal Tren" style="ellipse;shape=doubleEllipse;margin=3;whiteSpace=wrap;html=1;align=center;" vertex="1" parent="1">
          <mxGeometry x="-660" y="29" width="100" height="40" as="geometry" />
        </mxCell>
        <mxCell id="G-jf58LWq5bppQnvcWUJ-208" style="edgeStyle=orthogonalEdgeStyle;rounded=0;orthogonalLoop=1;jettySize=auto;html=1;exitX=0.5;exitY=0;exitDx=0;exitDy=0;entryX=0.17;entryY=0.969;entryDx=0;entryDy=0;entryPerimeter=0;endArrow=none;endFill=0;" edge="1" parent="1" source="39VwRnX8yQjaLsYdGuqC-86" target="39VwRnX8yQjaLsYdGuqC-106">
          <mxGeometry relative="1" as="geometry" />
        </mxCell>
        <mxCell id="39VwRnX8yQjaLsYdGuqC-86" value="#Kode_Shift" style="ellipse;whiteSpace=wrap;html=1;align=center;" vertex="1" parent="1">
          <mxGeometry x="543.75" y="410" width="100" height="40" as="geometry" />
        </mxCell>
        <mxCell id="G-jf58LWq5bppQnvcWUJ-206" style="edgeStyle=orthogonalEdgeStyle;rounded=0;orthogonalLoop=1;jettySize=auto;html=1;exitX=1;exitY=0.5;exitDx=0;exitDy=0;entryX=0;entryY=0.25;entryDx=0;entryDy=0;endArrow=none;endFill=0;" edge="1" parent="1" source="39VwRnX8yQjaLsYdGuqC-87" target="39VwRnX8yQjaLsYdGuqC-106">
          <mxGeometry relative="1" as="geometry" />
        </mxCell>
        <mxCell id="39VwRnX8yQjaLsYdGuqC-87" value="Jam Masuk AKhir" style="ellipse;whiteSpace=wrap;html=1;align=center;" vertex="1" parent="1">
          <mxGeometry x="482.5" y="299" width="100" height="40" as="geometry" />
        </mxCell>
        <mxCell id="G-jf58LWq5bppQnvcWUJ-207" style="edgeStyle=orthogonalEdgeStyle;rounded=0;orthogonalLoop=1;jettySize=auto;html=1;exitX=0.5;exitY=0;exitDx=0;exitDy=0;entryX=1;entryY=1;entryDx=0;entryDy=0;endArrow=none;endFill=0;" edge="1" parent="1" source="39VwRnX8yQjaLsYdGuqC-88" target="39VwRnX8yQjaLsYdGuqC-106">
          <mxGeometry relative="1" as="geometry" />
        </mxCell>
        <mxCell id="39VwRnX8yQjaLsYdGuqC-88" value="Jam Masuk Awal" style="ellipse;whiteSpace=wrap;html=1;align=center;" vertex="1" parent="1">
          <mxGeometry x="692.25" y="410" width="100" height="40" as="geometry" />
        </mxCell>
        <mxCell id="G-jf58LWq5bppQnvcWUJ-209" style="edgeStyle=orthogonalEdgeStyle;rounded=0;orthogonalLoop=1;jettySize=auto;html=1;exitX=0.5;exitY=1;exitDx=0;exitDy=0;entryX=0.5;entryY=0;entryDx=0;entryDy=0;endArrow=none;endFill=0;" edge="1" parent="1" source="39VwRnX8yQjaLsYdGuqC-106" target="39VwRnX8yQjaLsYdGuqC-111">
          <mxGeometry relative="1" as="geometry">
            <mxPoint x="490.75" y="585" as="targetPoint" />
          </mxGeometry>
        </mxCell>
        <mxCell id="G-jf58LWq5bppQnvcWUJ-335" style="edgeStyle=orthogonalEdgeStyle;rounded=0;orthogonalLoop=1;jettySize=auto;html=1;exitX=0.5;exitY=0;exitDx=0;exitDy=0;" edge="1" parent="1" source="39VwRnX8yQjaLsYdGuqC-106" target="G-jf58LWq5bppQnvcWUJ-329">
          <mxGeometry relative="1" as="geometry" />
        </mxCell>
        <mxCell id="39VwRnX8yQjaLsYdGuqC-106" value="SHIFT" style="whiteSpace=wrap;html=1;align=center;" vertex="1" parent="1">
          <mxGeometry x="611.75" y="340" width="100" height="40" as="geometry" />
        </mxCell>
        <mxCell id="G-jf58LWq5bppQnvcWUJ-306" style="edgeStyle=orthogonalEdgeStyle;rounded=0;orthogonalLoop=1;jettySize=auto;html=1;exitX=0.5;exitY=1;exitDx=0;exitDy=0;entryX=1;entryY=0;entryDx=0;entryDy=0;endArrow=none;endFill=0;" edge="1" parent="1" source="39VwRnX8yQjaLsYdGuqC-111" target="G-jf58LWq5bppQnvcWUJ-199">
          <mxGeometry relative="1" as="geometry" />
        </mxCell>
        <mxCell id="39VwRnX8yQjaLsYdGuqC-111" value="Memiliki" style="shape=rhombus;perimeter=rhombusPerimeter;whiteSpace=wrap;html=1;align=center;" vertex="1" parent="1">
          <mxGeometry x="481.5" y="620" width="120" height="60" as="geometry" />
        </mxCell>
        <mxCell id="39VwRnX8yQjaLsYdGuqC-117" style="edgeStyle=orthogonalEdgeStyle;rounded=0;orthogonalLoop=1;jettySize=auto;html=1;exitX=1;exitY=0.5;exitDx=0;exitDy=0;entryX=0;entryY=0.25;entryDx=0;entryDy=0;endArrow=none;endFill=0;" edge="1" parent="1" source="39VwRnX8yQjaLsYdGuqC-115" target="39VwRnX8yQjaLsYdGuqC-16">
          <mxGeometry relative="1" as="geometry" />
        </mxCell>
        <mxCell id="39VwRnX8yQjaLsYdGuqC-115" value="Kode Penempatan" style="ellipse;whiteSpace=wrap;html=1;align=center;" vertex="1" parent="1">
          <mxGeometry x="27" y="-221" width="100" height="40" as="geometry" />
        </mxCell>
        <mxCell id="39VwRnX8yQjaLsYdGuqC-118" style="edgeStyle=orthogonalEdgeStyle;rounded=0;orthogonalLoop=1;jettySize=auto;html=1;exitX=0;exitY=0.5;exitDx=0;exitDy=0;entryX=1;entryY=0.25;entryDx=0;entryDy=0;endArrow=none;endFill=0;" edge="1" parent="1" source="39VwRnX8yQjaLsYdGuqC-116" target="39VwRnX8yQjaLsYdGuqC-16">
          <mxGeometry relative="1" as="geometry" />
        </mxCell>
        <mxCell id="39VwRnX8yQjaLsYdGuqC-116" value="#Kode_Karyawan" style="ellipse;whiteSpace=wrap;html=1;align=center;" vertex="1" parent="1">
          <mxGeometry x="330" y="-211" width="100" height="40" as="geometry" />
        </mxCell>
        <mxCell id="39VwRnX8yQjaLsYdGuqC-221" style="edgeStyle=orthogonalEdgeStyle;rounded=0;orthogonalLoop=1;jettySize=auto;html=1;exitX=1;exitY=0.75;exitDx=0;exitDy=0;entryX=0.332;entryY=-0.016;entryDx=0;entryDy=0;entryPerimeter=0;endArrow=none;endFill=0;" edge="1" parent="1" source="39VwRnX8yQjaLsYdGuqC-119" target="39VwRnX8yQjaLsYdGuqC-124">
          <mxGeometry relative="1" as="geometry" />
        </mxCell>
        <mxCell id="39VwRnX8yQjaLsYdGuqC-264" style="edgeStyle=orthogonalEdgeStyle;rounded=0;orthogonalLoop=1;jettySize=auto;html=1;exitX=0;exitY=0.25;exitDx=0;exitDy=0;entryX=1;entryY=0;entryDx=0;entryDy=0;endArrow=none;endFill=0;" edge="1" parent="1" source="39VwRnX8yQjaLsYdGuqC-119" target="39VwRnX8yQjaLsYdGuqC-123">
          <mxGeometry relative="1" as="geometry" />
        </mxCell>
        <mxCell id="G-jf58LWq5bppQnvcWUJ-15" style="edgeStyle=orthogonalEdgeStyle;rounded=0;orthogonalLoop=1;jettySize=auto;html=1;exitX=0.25;exitY=0;exitDx=0;exitDy=0;entryX=0.5;entryY=1;entryDx=0;entryDy=0;" edge="1" parent="1" source="39VwRnX8yQjaLsYdGuqC-119" target="39VwRnX8yQjaLsYdGuqC-258">
          <mxGeometry relative="1" as="geometry" />
        </mxCell>
        <mxCell id="G-jf58LWq5bppQnvcWUJ-17" style="edgeStyle=orthogonalEdgeStyle;rounded=0;orthogonalLoop=1;jettySize=auto;html=1;exitX=0.5;exitY=1;exitDx=0;exitDy=0;entryX=0.5;entryY=0;entryDx=0;entryDy=0;endArrow=none;endFill=0;" edge="1" parent="1" source="39VwRnX8yQjaLsYdGuqC-119" target="39VwRnX8yQjaLsYdGuqC-197">
          <mxGeometry relative="1" as="geometry" />
        </mxCell>
        <mxCell id="G-jf58LWq5bppQnvcWUJ-299" style="edgeStyle=orthogonalEdgeStyle;rounded=0;orthogonalLoop=1;jettySize=auto;html=1;exitX=0.25;exitY=1;exitDx=0;exitDy=0;endArrow=none;endFill=0;" edge="1" parent="1" source="39VwRnX8yQjaLsYdGuqC-119" target="G-jf58LWq5bppQnvcWUJ-298">
          <mxGeometry relative="1" as="geometry" />
        </mxCell>
        <mxCell id="39VwRnX8yQjaLsYdGuqC-119" value="RISET SUPPLIER" style="whiteSpace=wrap;html=1;align=center;" vertex="1" parent="1">
          <mxGeometry x="-348.5" y="345" width="137" height="40" as="geometry" />
        </mxCell>
        <mxCell id="39VwRnX8yQjaLsYdGuqC-123" value="#Kode_Jabatan" style="ellipse;whiteSpace=wrap;html=1;align=center;" vertex="1" parent="1">
          <mxGeometry x="-495" y="390" width="100" height="40" as="geometry" />
        </mxCell>
        <mxCell id="39VwRnX8yQjaLsYdGuqC-124" value="#Kode_Karyawan" style="ellipse;whiteSpace=wrap;html=1;align=center;" vertex="1" parent="1">
          <mxGeometry x="-220" y="390" width="130" height="60" as="geometry" />
        </mxCell>
        <mxCell id="39VwRnX8yQjaLsYdGuqC-148" style="edgeStyle=orthogonalEdgeStyle;rounded=0;orthogonalLoop=1;jettySize=auto;html=1;exitX=0.62;exitY=-0.023;exitDx=0;exitDy=0;endArrow=none;endFill=0;exitPerimeter=0;" edge="1" parent="1" source="39VwRnX8yQjaLsYdGuqC-128" target="39VwRnX8yQjaLsYdGuqC-142">
          <mxGeometry relative="1" as="geometry" />
        </mxCell>
        <mxCell id="39VwRnX8yQjaLsYdGuqC-149" style="edgeStyle=orthogonalEdgeStyle;rounded=0;orthogonalLoop=1;jettySize=auto;html=1;exitX=0.75;exitY=1;exitDx=0;exitDy=0;entryX=0.5;entryY=0;entryDx=0;entryDy=0;endArrow=none;endFill=0;" edge="1" parent="1" source="39VwRnX8yQjaLsYdGuqC-128" target="39VwRnX8yQjaLsYdGuqC-141">
          <mxGeometry relative="1" as="geometry" />
        </mxCell>
        <mxCell id="39VwRnX8yQjaLsYdGuqC-150" style="edgeStyle=orthogonalEdgeStyle;rounded=0;orthogonalLoop=1;jettySize=auto;html=1;exitX=0.25;exitY=1;exitDx=0;exitDy=0;entryX=1;entryY=0.5;entryDx=0;entryDy=0;endArrow=none;endFill=0;" edge="1" parent="1" source="39VwRnX8yQjaLsYdGuqC-128" target="39VwRnX8yQjaLsYdGuqC-138">
          <mxGeometry relative="1" as="geometry" />
        </mxCell>
        <mxCell id="39VwRnX8yQjaLsYdGuqC-151" style="edgeStyle=orthogonalEdgeStyle;rounded=0;orthogonalLoop=1;jettySize=auto;html=1;exitX=0;exitY=0.5;exitDx=0;exitDy=0;entryX=1;entryY=0.5;entryDx=0;entryDy=0;endArrow=none;endFill=0;" edge="1" parent="1" source="39VwRnX8yQjaLsYdGuqC-128" target="39VwRnX8yQjaLsYdGuqC-146">
          <mxGeometry relative="1" as="geometry" />
        </mxCell>
        <mxCell id="39VwRnX8yQjaLsYdGuqC-152" style="edgeStyle=orthogonalEdgeStyle;rounded=0;orthogonalLoop=1;jettySize=auto;html=1;exitX=0.25;exitY=0;exitDx=0;exitDy=0;entryX=1;entryY=1;entryDx=0;entryDy=0;endArrow=none;endFill=0;" edge="1" parent="1" source="39VwRnX8yQjaLsYdGuqC-128" target="39VwRnX8yQjaLsYdGuqC-139">
          <mxGeometry relative="1" as="geometry" />
        </mxCell>
        <mxCell id="39VwRnX8yQjaLsYdGuqC-218" style="edgeStyle=orthogonalEdgeStyle;rounded=0;orthogonalLoop=1;jettySize=auto;html=1;exitX=1;exitY=0.25;exitDx=0;exitDy=0;entryX=0;entryY=0.5;entryDx=0;entryDy=0;endArrow=none;endFill=0;" edge="1" parent="1" source="39VwRnX8yQjaLsYdGuqC-128" target="39VwRnX8yQjaLsYdGuqC-197">
          <mxGeometry relative="1" as="geometry" />
        </mxCell>
        <mxCell id="G-jf58LWq5bppQnvcWUJ-5" style="edgeStyle=orthogonalEdgeStyle;rounded=0;orthogonalLoop=1;jettySize=auto;html=1;exitX=0.5;exitY=1;exitDx=0;exitDy=0;entryX=0.5;entryY=0;entryDx=0;entryDy=0;" edge="1" parent="1" source="39VwRnX8yQjaLsYdGuqC-128" target="G-jf58LWq5bppQnvcWUJ-4">
          <mxGeometry relative="1" as="geometry" />
        </mxCell>
        <mxCell id="39VwRnX8yQjaLsYdGuqC-128" value="DAFTAR SUPPLIER" style="whiteSpace=wrap;html=1;align=center;" vertex="1" parent="1">
          <mxGeometry x="-685" y="455" width="100" height="40" as="geometry" />
        </mxCell>
        <mxCell id="39VwRnX8yQjaLsYdGuqC-137" value="#Kode_Supplier" style="ellipse;whiteSpace=wrap;html=1;align=center;" vertex="1" parent="1">
          <mxGeometry x="-560" y="960" width="100" height="40" as="geometry" />
        </mxCell>
        <mxCell id="39VwRnX8yQjaLsYdGuqC-138" value="Nama Barang" style="ellipse;whiteSpace=wrap;html=1;align=center;" vertex="1" parent="1">
          <mxGeometry x="-800" y="565" width="100" height="40" as="geometry" />
        </mxCell>
        <mxCell id="39VwRnX8yQjaLsYdGuqC-139" value="Kontak" style="ellipse;whiteSpace=wrap;html=1;align=center;" vertex="1" parent="1">
          <mxGeometry x="-820" y="400" width="100" height="40" as="geometry" />
        </mxCell>
        <mxCell id="39VwRnX8yQjaLsYdGuqC-141" value="#Kode_Supplier" style="ellipse;whiteSpace=wrap;html=1;align=center;" vertex="1" parent="1">
          <mxGeometry x="-590" y="540" width="100" height="40" as="geometry" />
        </mxCell>
        <mxCell id="39VwRnX8yQjaLsYdGuqC-142" value="NAMA SUPPLIER" style="ellipse;whiteSpace=wrap;html=1;align=center;" vertex="1" parent="1">
          <mxGeometry x="-660" y="315" width="120" height="70" as="geometry" />
        </mxCell>
        <mxCell id="39VwRnX8yQjaLsYdGuqC-146" value="Alamat" style="ellipse;whiteSpace=wrap;html=1;align=center;" vertex="1" parent="1">
          <mxGeometry x="-860" y="470" width="100" height="40" as="geometry" />
        </mxCell>
        <mxCell id="39VwRnX8yQjaLsYdGuqC-179" style="edgeStyle=orthogonalEdgeStyle;rounded=0;orthogonalLoop=1;jettySize=auto;html=1;exitX=0.25;exitY=0;exitDx=0;exitDy=0;entryX=0.5;entryY=1;entryDx=0;entryDy=0;endArrow=none;endFill=0;" edge="1" parent="1" source="39VwRnX8yQjaLsYdGuqC-153" target="39VwRnX8yQjaLsYdGuqC-168">
          <mxGeometry relative="1" as="geometry" />
        </mxCell>
        <mxCell id="39VwRnX8yQjaLsYdGuqC-180" style="edgeStyle=orthogonalEdgeStyle;rounded=0;orthogonalLoop=1;jettySize=auto;html=1;exitX=0;exitY=0;exitDx=0;exitDy=0;entryX=1;entryY=1;entryDx=0;entryDy=0;endArrow=none;endFill=0;" edge="1" parent="1" source="39VwRnX8yQjaLsYdGuqC-153" target="39VwRnX8yQjaLsYdGuqC-163">
          <mxGeometry relative="1" as="geometry" />
        </mxCell>
        <mxCell id="39VwRnX8yQjaLsYdGuqC-181" style="edgeStyle=orthogonalEdgeStyle;rounded=0;orthogonalLoop=1;jettySize=auto;html=1;exitX=0;exitY=0.25;exitDx=0;exitDy=0;entryX=1;entryY=0.5;entryDx=0;entryDy=0;endArrow=none;endFill=0;" edge="1" parent="1" source="39VwRnX8yQjaLsYdGuqC-153" target="39VwRnX8yQjaLsYdGuqC-137">
          <mxGeometry relative="1" as="geometry" />
        </mxCell>
        <mxCell id="39VwRnX8yQjaLsYdGuqC-182" style="edgeStyle=orthogonalEdgeStyle;rounded=0;orthogonalLoop=1;jettySize=auto;html=1;exitX=0;exitY=0.75;exitDx=0;exitDy=0;entryX=1;entryY=0;entryDx=0;entryDy=0;endArrow=none;endFill=0;" edge="1" parent="1" source="39VwRnX8yQjaLsYdGuqC-153" target="39VwRnX8yQjaLsYdGuqC-167">
          <mxGeometry relative="1" as="geometry" />
        </mxCell>
        <mxCell id="G-jf58LWq5bppQnvcWUJ-55" style="edgeStyle=orthogonalEdgeStyle;rounded=0;orthogonalLoop=1;jettySize=auto;html=1;exitX=0;exitY=1;exitDx=0;exitDy=0;entryX=1;entryY=0;entryDx=0;entryDy=0;" edge="1" parent="1" source="39VwRnX8yQjaLsYdGuqC-153" target="39VwRnX8yQjaLsYdGuqC-169">
          <mxGeometry relative="1" as="geometry" />
        </mxCell>
        <mxCell id="G-jf58LWq5bppQnvcWUJ-56" style="edgeStyle=orthogonalEdgeStyle;rounded=0;orthogonalLoop=1;jettySize=auto;html=1;exitX=0.25;exitY=1;exitDx=0;exitDy=0;entryX=0.5;entryY=0;entryDx=0;entryDy=0;" edge="1" parent="1" source="39VwRnX8yQjaLsYdGuqC-153" target="39VwRnX8yQjaLsYdGuqC-170">
          <mxGeometry relative="1" as="geometry" />
        </mxCell>
        <mxCell id="G-jf58LWq5bppQnvcWUJ-57" style="edgeStyle=orthogonalEdgeStyle;rounded=0;orthogonalLoop=1;jettySize=auto;html=1;exitX=0.5;exitY=1;exitDx=0;exitDy=0;entryX=0;entryY=0.5;entryDx=0;entryDy=0;" edge="1" parent="1" source="39VwRnX8yQjaLsYdGuqC-153" target="39VwRnX8yQjaLsYdGuqC-160">
          <mxGeometry relative="1" as="geometry" />
        </mxCell>
        <mxCell id="G-jf58LWq5bppQnvcWUJ-58" style="edgeStyle=orthogonalEdgeStyle;rounded=0;orthogonalLoop=1;jettySize=auto;html=1;exitX=0.75;exitY=1;exitDx=0;exitDy=0;entryX=0;entryY=1;entryDx=0;entryDy=0;" edge="1" parent="1" source="39VwRnX8yQjaLsYdGuqC-153" target="39VwRnX8yQjaLsYdGuqC-162">
          <mxGeometry relative="1" as="geometry" />
        </mxCell>
        <mxCell id="G-jf58LWq5bppQnvcWUJ-59" style="edgeStyle=orthogonalEdgeStyle;rounded=0;orthogonalLoop=1;jettySize=auto;html=1;exitX=1;exitY=1;exitDx=0;exitDy=0;entryX=0;entryY=0.5;entryDx=0;entryDy=0;" edge="1" parent="1" source="39VwRnX8yQjaLsYdGuqC-153" target="39VwRnX8yQjaLsYdGuqC-161">
          <mxGeometry relative="1" as="geometry">
            <Array as="points">
              <mxPoint x="-235" y="1015" />
            </Array>
          </mxGeometry>
        </mxCell>
        <mxCell id="G-jf58LWq5bppQnvcWUJ-60" style="edgeStyle=orthogonalEdgeStyle;rounded=0;orthogonalLoop=1;jettySize=auto;html=1;exitX=1;exitY=0.5;exitDx=0;exitDy=0;entryX=0.5;entryY=1;entryDx=0;entryDy=0;" edge="1" parent="1" source="39VwRnX8yQjaLsYdGuqC-153" target="39VwRnX8yQjaLsYdGuqC-164">
          <mxGeometry relative="1" as="geometry" />
        </mxCell>
        <mxCell id="G-jf58LWq5bppQnvcWUJ-61" style="edgeStyle=orthogonalEdgeStyle;rounded=0;orthogonalLoop=1;jettySize=auto;html=1;exitX=1;exitY=0;exitDx=0;exitDy=0;entryX=0.3;entryY=1;entryDx=0;entryDy=0;entryPerimeter=0;" edge="1" parent="1" source="39VwRnX8yQjaLsYdGuqC-153" target="39VwRnX8yQjaLsYdGuqC-166">
          <mxGeometry relative="1" as="geometry" />
        </mxCell>
        <mxCell id="G-jf58LWq5bppQnvcWUJ-69" style="edgeStyle=orthogonalEdgeStyle;rounded=0;orthogonalLoop=1;jettySize=auto;html=1;exitX=0.75;exitY=0;exitDx=0;exitDy=0;entryX=0.5;entryY=1;entryDx=0;entryDy=0;" edge="1" parent="1" source="39VwRnX8yQjaLsYdGuqC-153" target="G-jf58LWq5bppQnvcWUJ-64">
          <mxGeometry relative="1" as="geometry">
            <Array as="points">
              <mxPoint x="-260" y="870" />
              <mxPoint x="33" y="870" />
            </Array>
          </mxGeometry>
        </mxCell>
        <mxCell id="39VwRnX8yQjaLsYdGuqC-153" value="DAFTAR BELI BARANG" style="whiteSpace=wrap;html=1;align=center;" vertex="1" parent="1">
          <mxGeometry x="-335" y="980" width="100" height="40" as="geometry" />
        </mxCell>
        <mxCell id="39VwRnX8yQjaLsYdGuqC-160" value="Jenis Pembayaran" style="ellipse;whiteSpace=wrap;html=1;align=center;" vertex="1" parent="1">
          <mxGeometry x="-280" y="1065" width="100" height="40" as="geometry" />
        </mxCell>
        <mxCell id="39VwRnX8yQjaLsYdGuqC-161" value="Termin Pembayaran" style="ellipse;whiteSpace=wrap;html=1;align=center;" vertex="1" parent="1">
          <mxGeometry x="-150" y="995" width="100" height="40" as="geometry" />
        </mxCell>
        <mxCell id="39VwRnX8yQjaLsYdGuqC-162" value="Harga" style="ellipse;whiteSpace=wrap;html=1;align=center;" vertex="1" parent="1">
          <mxGeometry x="-230" y="1020" width="100" height="40" as="geometry" />
        </mxCell>
        <mxCell id="39VwRnX8yQjaLsYdGuqC-163" value="Jumlah" style="ellipse;whiteSpace=wrap;html=1;align=center;" vertex="1" parent="1">
          <mxGeometry x="-510" y="910" width="100" height="40" as="geometry" />
        </mxCell>
        <mxCell id="39VwRnX8yQjaLsYdGuqC-164" value="Ukuran" style="ellipse;whiteSpace=wrap;html=1;align=center;" vertex="1" parent="1">
          <mxGeometry x="-190" y="940" width="100" height="40" as="geometry" />
        </mxCell>
        <mxCell id="39VwRnX8yQjaLsYdGuqC-166" value="Kode Barang" style="ellipse;whiteSpace=wrap;html=1;align=center;" vertex="1" parent="1">
          <mxGeometry x="-230" y="895" width="100" height="40" as="geometry" />
        </mxCell>
        <mxCell id="39VwRnX8yQjaLsYdGuqC-167" value="Nama Barang" style="ellipse;whiteSpace=wrap;html=1;align=center;" vertex="1" parent="1">
          <mxGeometry x="-530" y="1010" width="100" height="40" as="geometry" />
        </mxCell>
        <mxCell id="39VwRnX8yQjaLsYdGuqC-168" value="Nama Supplier" style="ellipse;whiteSpace=wrap;html=1;align=center;" vertex="1" parent="1">
          <mxGeometry x="-450" y="870" width="100" height="40" as="geometry" />
        </mxCell>
        <mxCell id="39VwRnX8yQjaLsYdGuqC-169" value="Tanggal Pembelian" style="ellipse;whiteSpace=wrap;html=1;align=center;" vertex="1" parent="1">
          <mxGeometry x="-470" y="1050" width="100" height="40" as="geometry" />
        </mxCell>
        <mxCell id="39VwRnX8yQjaLsYdGuqC-170" value="#Kode_Transaksi" style="ellipse;whiteSpace=wrap;html=1;align=center;" vertex="1" parent="1">
          <mxGeometry x="-390" y="1090" width="100" height="40" as="geometry" />
        </mxCell>
        <mxCell id="39VwRnX8yQjaLsYdGuqC-196" value="1" style="text;html=1;align=center;verticalAlign=middle;resizable=0;points=[];autosize=1;strokeColor=#d79b00;fillColor=#ffe6cc;" vertex="1" parent="1">
          <mxGeometry x="-275" y="395" width="30" height="30" as="geometry" />
        </mxCell>
        <mxCell id="39VwRnX8yQjaLsYdGuqC-217" style="edgeStyle=orthogonalEdgeStyle;rounded=0;orthogonalLoop=1;jettySize=auto;html=1;exitX=0.5;exitY=1;exitDx=0;exitDy=0;entryX=0.5;entryY=0;entryDx=0;entryDy=0;endArrow=none;endFill=0;" edge="1" parent="1" source="39VwRnX8yQjaLsYdGuqC-197" target="39VwRnX8yQjaLsYdGuqC-198">
          <mxGeometry relative="1" as="geometry" />
        </mxCell>
        <mxCell id="39VwRnX8yQjaLsYdGuqC-197" value="Meriset 1 per 1 &lt;br&gt;barang dari &lt;br&gt;daftar barang tren" style="shape=rhombus;perimeter=rhombusPerimeter;whiteSpace=wrap;html=1;align=center;" vertex="1" parent="1">
          <mxGeometry x="-370" y="455" width="180" height="95" as="geometry" />
        </mxCell>
        <mxCell id="39VwRnX8yQjaLsYdGuqC-215" style="edgeStyle=orthogonalEdgeStyle;rounded=0;orthogonalLoop=1;jettySize=auto;html=1;exitX=1;exitY=0.25;exitDx=0;exitDy=0;entryX=0;entryY=1;entryDx=0;entryDy=0;endArrow=none;endFill=0;" edge="1" parent="1" source="39VwRnX8yQjaLsYdGuqC-198" target="39VwRnX8yQjaLsYdGuqC-210">
          <mxGeometry relative="1" as="geometry" />
        </mxCell>
        <mxCell id="39VwRnX8yQjaLsYdGuqC-271" style="edgeStyle=orthogonalEdgeStyle;rounded=0;orthogonalLoop=1;jettySize=auto;html=1;exitX=0.25;exitY=1;exitDx=0;exitDy=0;entryX=0.5;entryY=0;entryDx=0;entryDy=0;endArrow=none;endFill=0;" edge="1" parent="1" source="39VwRnX8yQjaLsYdGuqC-198" target="39VwRnX8yQjaLsYdGuqC-208">
          <mxGeometry relative="1" as="geometry" />
        </mxCell>
        <mxCell id="G-jf58LWq5bppQnvcWUJ-19" style="edgeStyle=orthogonalEdgeStyle;rounded=0;orthogonalLoop=1;jettySize=auto;html=1;exitX=0.5;exitY=1;exitDx=0;exitDy=0;entryX=0.5;entryY=0;entryDx=0;entryDy=0;endArrow=none;endFill=0;" edge="1" parent="1" source="39VwRnX8yQjaLsYdGuqC-198" target="39VwRnX8yQjaLsYdGuqC-267">
          <mxGeometry relative="1" as="geometry" />
        </mxCell>
        <mxCell id="39VwRnX8yQjaLsYdGuqC-198" value="SUPPLIER" style="whiteSpace=wrap;html=1;align=center;" vertex="1" parent="1">
          <mxGeometry x="-330" y="620" width="100" height="40" as="geometry" />
        </mxCell>
        <mxCell id="39VwRnX8yQjaLsYdGuqC-270" style="edgeStyle=orthogonalEdgeStyle;rounded=0;orthogonalLoop=1;jettySize=auto;html=1;exitX=1;exitY=1;exitDx=0;exitDy=0;entryX=0.25;entryY=0;entryDx=0;entryDy=0;endArrow=none;endFill=0;" edge="1" parent="1" source="39VwRnX8yQjaLsYdGuqC-207" target="39VwRnX8yQjaLsYdGuqC-198">
          <mxGeometry relative="1" as="geometry" />
        </mxCell>
        <mxCell id="39VwRnX8yQjaLsYdGuqC-207" value="#Kode_Supplier" style="ellipse;whiteSpace=wrap;html=1;align=center;" vertex="1" parent="1">
          <mxGeometry x="-475" y="535" width="100" height="40" as="geometry" />
        </mxCell>
        <mxCell id="39VwRnX8yQjaLsYdGuqC-208" value="Nama Supplier" style="ellipse;whiteSpace=wrap;html=1;align=center;" vertex="1" parent="1">
          <mxGeometry x="-425" y="690" width="100" height="40" as="geometry" />
        </mxCell>
        <mxCell id="39VwRnX8yQjaLsYdGuqC-209" value="Harga" style="ellipse;whiteSpace=wrap;html=1;align=center;" vertex="1" parent="1">
          <mxGeometry x="-180" y="660" width="100" height="40" as="geometry" />
        </mxCell>
        <mxCell id="39VwRnX8yQjaLsYdGuqC-210" value="Barang" style="ellipse;whiteSpace=wrap;html=1;align=center;" vertex="1" parent="1">
          <mxGeometry x="-180" y="550" width="100" height="40" as="geometry" />
        </mxCell>
        <mxCell id="39VwRnX8yQjaLsYdGuqC-223" value="M" style="text;html=1;align=center;verticalAlign=middle;resizable=0;points=[];autosize=1;strokeColor=#d79b00;fillColor=#ffe6cc;" vertex="1" parent="1">
          <mxGeometry x="-383" y="625" width="30" height="30" as="geometry" />
        </mxCell>
        <mxCell id="39VwRnX8yQjaLsYdGuqC-224" value="M" style="text;html=1;align=center;verticalAlign=middle;resizable=0;points=[];autosize=1;strokeColor=#d79b00;fillColor=#ffe6cc;" vertex="1" parent="1">
          <mxGeometry x="-582" y="470" width="30" height="30" as="geometry" />
        </mxCell>
        <mxCell id="39VwRnX8yQjaLsYdGuqC-232" style="edgeStyle=orthogonalEdgeStyle;rounded=0;orthogonalLoop=1;jettySize=auto;html=1;exitX=0.25;exitY=0;exitDx=0;exitDy=0;entryX=1;entryY=0.5;entryDx=0;entryDy=0;endArrow=none;endFill=0;" edge="1" parent="1" source="39VwRnX8yQjaLsYdGuqC-226" target="39VwRnX8yQjaLsYdGuqC-228">
          <mxGeometry relative="1" as="geometry" />
        </mxCell>
        <mxCell id="39VwRnX8yQjaLsYdGuqC-233" style="edgeStyle=orthogonalEdgeStyle;rounded=0;orthogonalLoop=1;jettySize=auto;html=1;exitX=1;exitY=0.25;exitDx=0;exitDy=0;entryX=0.5;entryY=1;entryDx=0;entryDy=0;endArrow=none;endFill=0;" edge="1" parent="1" source="39VwRnX8yQjaLsYdGuqC-226" target="39VwRnX8yQjaLsYdGuqC-227">
          <mxGeometry relative="1" as="geometry" />
        </mxCell>
        <mxCell id="39VwRnX8yQjaLsYdGuqC-246" style="edgeStyle=orthogonalEdgeStyle;rounded=0;orthogonalLoop=1;jettySize=auto;html=1;exitX=0.5;exitY=1;exitDx=0;exitDy=0;entryX=0.5;entryY=0;entryDx=0;entryDy=0;endArrow=none;endFill=0;" edge="1" parent="1" source="39VwRnX8yQjaLsYdGuqC-226" target="39VwRnX8yQjaLsYdGuqC-245">
          <mxGeometry relative="1" as="geometry" />
        </mxCell>
        <mxCell id="39VwRnX8yQjaLsYdGuqC-249" style="edgeStyle=orthogonalEdgeStyle;rounded=0;orthogonalLoop=1;jettySize=auto;html=1;exitX=0.75;exitY=1;exitDx=0;exitDy=0;entryX=0.5;entryY=0;entryDx=0;entryDy=0;endArrow=none;endFill=0;" edge="1" parent="1" source="39VwRnX8yQjaLsYdGuqC-226" target="39VwRnX8yQjaLsYdGuqC-240">
          <mxGeometry relative="1" as="geometry">
            <Array as="points">
              <mxPoint x="-290" y="-181" />
              <mxPoint x="-290" y="-120" />
              <mxPoint x="-30" y="-120" />
            </Array>
          </mxGeometry>
        </mxCell>
        <mxCell id="G-jf58LWq5bppQnvcWUJ-304" style="edgeStyle=orthogonalEdgeStyle;rounded=0;orthogonalLoop=1;jettySize=auto;html=1;exitX=0.75;exitY=0;exitDx=0;exitDy=0;entryX=0.606;entryY=1.113;entryDx=0;entryDy=0;entryPerimeter=0;endArrow=none;endFill=0;" edge="1" parent="1" source="39VwRnX8yQjaLsYdGuqC-226" target="G-jf58LWq5bppQnvcWUJ-303">
          <mxGeometry relative="1" as="geometry" />
        </mxCell>
        <mxCell id="39VwRnX8yQjaLsYdGuqC-226" value="RISET BARANG TREN" style="whiteSpace=wrap;html=1;align=center;" vertex="1" parent="1">
          <mxGeometry x="-383" y="-221" width="100" height="40" as="geometry" />
        </mxCell>
        <mxCell id="39VwRnX8yQjaLsYdGuqC-227" value="#Kode_Jabatan" style="ellipse;whiteSpace=wrap;html=1;align=center;" vertex="1" parent="1">
          <mxGeometry x="-275" y="-251" width="100" height="40" as="geometry" />
        </mxCell>
        <mxCell id="39VwRnX8yQjaLsYdGuqC-228" value="#Kode_Karyawan" style="ellipse;whiteSpace=wrap;html=1;align=center;" vertex="1" parent="1">
          <mxGeometry x="-470" y="-281" width="100" height="40" as="geometry" />
        </mxCell>
        <mxCell id="39VwRnX8yQjaLsYdGuqC-242" style="edgeStyle=orthogonalEdgeStyle;rounded=0;orthogonalLoop=1;jettySize=auto;html=1;exitX=0;exitY=0.5;exitDx=0;exitDy=0;entryX=0.5;entryY=0;entryDx=0;entryDy=0;endArrow=none;endFill=0;" edge="1" parent="1" source="39VwRnX8yQjaLsYdGuqC-240" target="39VwRnX8yQjaLsYdGuqC-119">
          <mxGeometry relative="1" as="geometry" />
        </mxCell>
        <mxCell id="G-jf58LWq5bppQnvcWUJ-45" style="edgeStyle=orthogonalEdgeStyle;rounded=0;orthogonalLoop=1;jettySize=auto;html=1;exitX=0.5;exitY=1;exitDx=0;exitDy=0;entryX=0.5;entryY=0;entryDx=0;entryDy=0;" edge="1" parent="1" source="39VwRnX8yQjaLsYdGuqC-240" target="G-jf58LWq5bppQnvcWUJ-22">
          <mxGeometry relative="1" as="geometry">
            <Array as="points">
              <mxPoint x="-30" y="380" />
              <mxPoint x="58" y="380" />
            </Array>
          </mxGeometry>
        </mxCell>
        <mxCell id="G-jf58LWq5bppQnvcWUJ-72" style="edgeStyle=orthogonalEdgeStyle;rounded=0;orthogonalLoop=1;jettySize=auto;html=1;exitX=0.637;exitY=0.143;exitDx=0;exitDy=0;entryX=0;entryY=0;entryDx=0;entryDy=0;exitPerimeter=0;endArrow=none;endFill=0;" edge="1" parent="1" source="39VwRnX8yQjaLsYdGuqC-240" target="39VwRnX8yQjaLsYdGuqC-265">
          <mxGeometry relative="1" as="geometry">
            <Array as="points">
              <mxPoint x="-10" y="224" />
              <mxPoint x="-10" y="-370" />
              <mxPoint x="-890" y="-370" />
              <mxPoint x="-890" y="1120" />
              <mxPoint x="-690" y="1120" />
              <mxPoint x="-690" y="1180" />
            </Array>
          </mxGeometry>
        </mxCell>
        <mxCell id="G-jf58LWq5bppQnvcWUJ-98" style="edgeStyle=orthogonalEdgeStyle;rounded=0;orthogonalLoop=1;jettySize=auto;html=1;exitX=1;exitY=0.5;exitDx=0;exitDy=0;entryX=0.5;entryY=0;entryDx=0;entryDy=0;" edge="1" parent="1" source="39VwRnX8yQjaLsYdGuqC-240" target="G-jf58LWq5bppQnvcWUJ-73">
          <mxGeometry relative="1" as="geometry" />
        </mxCell>
        <mxCell id="G-jf58LWq5bppQnvcWUJ-305" style="edgeStyle=orthogonalEdgeStyle;rounded=0;orthogonalLoop=1;jettySize=auto;html=1;exitX=1;exitY=1;exitDx=0;exitDy=0;entryX=0.5;entryY=0;entryDx=0;entryDy=0;endArrow=none;endFill=0;" edge="1" parent="1" source="39VwRnX8yQjaLsYdGuqC-240" target="G-jf58LWq5bppQnvcWUJ-199">
          <mxGeometry relative="1" as="geometry">
            <Array as="points">
              <mxPoint x="470" y="260" />
              <mxPoint x="470" y="767" />
            </Array>
          </mxGeometry>
        </mxCell>
        <mxCell id="39VwRnX8yQjaLsYdGuqC-240" value="sebagai" style="shape=rhombus;perimeter=rhombusPerimeter;whiteSpace=wrap;html=1;align=center;" vertex="1" parent="1">
          <mxGeometry x="-90" y="215" width="120" height="60" as="geometry" />
        </mxCell>
        <mxCell id="39VwRnX8yQjaLsYdGuqC-243" value="1" style="text;html=1;align=center;verticalAlign=middle;resizable=0;points=[];autosize=1;strokeColor=#d79b00;fillColor=#ffe6cc;" vertex="1" parent="1">
          <mxGeometry x="219.75" y="185" width="30" height="30" as="geometry" />
        </mxCell>
        <mxCell id="39VwRnX8yQjaLsYdGuqC-248" style="edgeStyle=orthogonalEdgeStyle;rounded=0;orthogonalLoop=1;jettySize=auto;html=1;exitX=0;exitY=0.5;exitDx=0;exitDy=0;entryX=1;entryY=0.5;entryDx=0;entryDy=0;endArrow=none;endFill=0;" edge="1" parent="1" source="39VwRnX8yQjaLsYdGuqC-245" target="39VwRnX8yQjaLsYdGuqC-48">
          <mxGeometry relative="1" as="geometry" />
        </mxCell>
        <mxCell id="39VwRnX8yQjaLsYdGuqC-245" value="Meriset barang &lt;br&gt;yang sedang tren" style="shape=rhombus;perimeter=rhombusPerimeter;whiteSpace=wrap;html=1;align=center;" vertex="1" parent="1">
          <mxGeometry x="-420" y="-111" width="155" height="130" as="geometry" />
        </mxCell>
        <mxCell id="39VwRnX8yQjaLsYdGuqC-256" value="1" style="text;html=1;align=center;verticalAlign=middle;resizable=0;points=[];autosize=1;strokeColor=#d79b00;fillColor=#ffe6cc;" vertex="1" parent="1">
          <mxGeometry x="-390" y="-171" width="30" height="30" as="geometry" />
        </mxCell>
        <mxCell id="G-jf58LWq5bppQnvcWUJ-16" style="edgeStyle=orthogonalEdgeStyle;rounded=0;orthogonalLoop=1;jettySize=auto;html=1;exitX=0;exitY=0.5;exitDx=0;exitDy=0;" edge="1" parent="1" source="39VwRnX8yQjaLsYdGuqC-258">
          <mxGeometry relative="1" as="geometry">
            <mxPoint x="-510" y="-10" as="targetPoint" />
          </mxGeometry>
        </mxCell>
        <mxCell id="39VwRnX8yQjaLsYdGuqC-258" value="mengakses" style="shape=rhombus;perimeter=rhombusPerimeter;whiteSpace=wrap;html=1;align=center;" vertex="1" parent="1">
          <mxGeometry x="-480" y="100" width="120" height="60" as="geometry" />
        </mxCell>
        <mxCell id="G-jf58LWq5bppQnvcWUJ-13" style="edgeStyle=orthogonalEdgeStyle;rounded=0;orthogonalLoop=1;jettySize=auto;html=1;exitX=0;exitY=0.5;exitDx=0;exitDy=0;entryX=1;entryY=0.5;entryDx=0;entryDy=0;endArrow=none;endFill=0;" edge="1" parent="1" source="39VwRnX8yQjaLsYdGuqC-265" target="G-jf58LWq5bppQnvcWUJ-11">
          <mxGeometry relative="1" as="geometry" />
        </mxCell>
        <mxCell id="G-jf58LWq5bppQnvcWUJ-14" style="edgeStyle=orthogonalEdgeStyle;rounded=0;orthogonalLoop=1;jettySize=auto;html=1;exitX=0.25;exitY=1;exitDx=0;exitDy=0;entryX=0.5;entryY=0;entryDx=0;entryDy=0;endArrow=none;endFill=0;" edge="1" parent="1" source="39VwRnX8yQjaLsYdGuqC-265" target="G-jf58LWq5bppQnvcWUJ-12">
          <mxGeometry relative="1" as="geometry" />
        </mxCell>
        <mxCell id="G-jf58LWq5bppQnvcWUJ-52" style="edgeStyle=orthogonalEdgeStyle;rounded=0;orthogonalLoop=1;jettySize=auto;html=1;exitX=1;exitY=0.75;exitDx=0;exitDy=0;entryX=0.5;entryY=1;entryDx=0;entryDy=0;endArrow=none;endFill=0;" edge="1" parent="1" source="39VwRnX8yQjaLsYdGuqC-265" target="G-jf58LWq5bppQnvcWUJ-46">
          <mxGeometry relative="1" as="geometry" />
        </mxCell>
        <mxCell id="G-jf58LWq5bppQnvcWUJ-53" style="edgeStyle=orthogonalEdgeStyle;rounded=0;orthogonalLoop=1;jettySize=auto;html=1;exitX=0.75;exitY=0;exitDx=0;exitDy=0;entryX=0;entryY=0;entryDx=0;entryDy=0;endArrow=none;endFill=0;" edge="1" parent="1" source="39VwRnX8yQjaLsYdGuqC-265" target="39VwRnX8yQjaLsYdGuqC-267">
          <mxGeometry relative="1" as="geometry">
            <Array as="points">
              <mxPoint x="-610" y="785" />
            </Array>
          </mxGeometry>
        </mxCell>
        <mxCell id="39VwRnX8yQjaLsYdGuqC-265" value="PURCHASING" style="whiteSpace=wrap;html=1;align=center;" vertex="1" parent="1">
          <mxGeometry x="-685" y="1180" width="100" height="40" as="geometry" />
        </mxCell>
        <mxCell id="G-jf58LWq5bppQnvcWUJ-9" style="edgeStyle=orthogonalEdgeStyle;rounded=0;orthogonalLoop=1;jettySize=auto;html=1;exitX=0;exitY=0.5;exitDx=0;exitDy=0;entryX=0.5;entryY=0;entryDx=0;entryDy=0;endArrow=none;endFill=0;" edge="1" parent="1" source="39VwRnX8yQjaLsYdGuqC-267" target="39VwRnX8yQjaLsYdGuqC-153">
          <mxGeometry relative="1" as="geometry" />
        </mxCell>
        <mxCell id="39VwRnX8yQjaLsYdGuqC-267" value="transaksi" style="shape=rhombus;perimeter=rhombusPerimeter;whiteSpace=wrap;html=1;align=center;" vertex="1" parent="1">
          <mxGeometry x="-300" y="795" width="120" height="60" as="geometry" />
        </mxCell>
        <mxCell id="G-jf58LWq5bppQnvcWUJ-6" style="edgeStyle=orthogonalEdgeStyle;rounded=0;orthogonalLoop=1;jettySize=auto;html=1;exitX=0.5;exitY=1;exitDx=0;exitDy=0;entryX=0.5;entryY=0;entryDx=0;entryDy=0;endArrow=none;endFill=0;" edge="1" parent="1" source="G-jf58LWq5bppQnvcWUJ-4" target="39VwRnX8yQjaLsYdGuqC-265">
          <mxGeometry relative="1" as="geometry" />
        </mxCell>
        <mxCell id="G-jf58LWq5bppQnvcWUJ-4" value="diakses" style="shape=rhombus;perimeter=rhombusPerimeter;whiteSpace=wrap;html=1;align=center;" vertex="1" parent="1">
          <mxGeometry x="-696" y="615" width="120" height="60" as="geometry" />
        </mxCell>
        <mxCell id="G-jf58LWq5bppQnvcWUJ-11" value="#Kode_Jabatan" style="ellipse;whiteSpace=wrap;html=1;align=center;" vertex="1" parent="1">
          <mxGeometry x="-800" y="1190" width="100" height="40" as="geometry" />
        </mxCell>
        <mxCell id="G-jf58LWq5bppQnvcWUJ-12" value="#Kode_Karyawan" style="ellipse;whiteSpace=wrap;html=1;align=center;" vertex="1" parent="1">
          <mxGeometry x="-740" y="1250" width="130" height="60" as="geometry" />
        </mxCell>
        <mxCell id="G-jf58LWq5bppQnvcWUJ-47" style="edgeStyle=orthogonalEdgeStyle;rounded=0;orthogonalLoop=1;jettySize=auto;html=1;exitX=0.75;exitY=1;exitDx=0;exitDy=0;entryX=0.5;entryY=0;entryDx=0;entryDy=0;" edge="1" parent="1" source="G-jf58LWq5bppQnvcWUJ-22" target="G-jf58LWq5bppQnvcWUJ-46">
          <mxGeometry relative="1" as="geometry">
            <Array as="points">
              <mxPoint x="70" y="535" />
              <mxPoint x="70" y="610" />
              <mxPoint x="102" y="610" />
            </Array>
          </mxGeometry>
        </mxCell>
        <mxCell id="G-jf58LWq5bppQnvcWUJ-234" style="edgeStyle=orthogonalEdgeStyle;rounded=0;orthogonalLoop=1;jettySize=auto;html=1;exitX=0.75;exitY=0;exitDx=0;exitDy=0;entryX=0.5;entryY=0;entryDx=0;entryDy=0;" edge="1" parent="1" source="G-jf58LWq5bppQnvcWUJ-22" target="G-jf58LWq5bppQnvcWUJ-227">
          <mxGeometry relative="1" as="geometry">
            <Array as="points">
              <mxPoint x="83" y="300" />
              <mxPoint x="407" y="300" />
            </Array>
          </mxGeometry>
        </mxCell>
        <mxCell id="G-jf58LWq5bppQnvcWUJ-22" value="Good Warehouse" style="whiteSpace=wrap;html=1;align=center;" vertex="1" parent="1">
          <mxGeometry x="7.5" y="495" width="100" height="40" as="geometry" />
        </mxCell>
        <mxCell id="G-jf58LWq5bppQnvcWUJ-33" value="#Kode Permintaan" style="ellipse;whiteSpace=wrap;html=1;align=center;" vertex="1" parent="1">
          <mxGeometry x="504.75" y="1345" width="100" height="40" as="geometry" />
        </mxCell>
        <mxCell id="G-jf58LWq5bppQnvcWUJ-35" value="jumlah" style="ellipse;whiteSpace=wrap;html=1;align=center;" vertex="1" parent="1">
          <mxGeometry x="184.75" y="1405" width="100" height="40" as="geometry" />
        </mxCell>
        <mxCell id="G-jf58LWq5bppQnvcWUJ-36" value="Nama barang" style="ellipse;whiteSpace=wrap;html=1;align=center;" vertex="1" parent="1">
          <mxGeometry x="474.75" y="1420" width="100" height="40" as="geometry" />
        </mxCell>
        <mxCell id="G-jf58LWq5bppQnvcWUJ-37" value="#Kode_Barang" style="ellipse;whiteSpace=wrap;html=1;align=center;" vertex="1" parent="1">
          <mxGeometry x="474.75" y="1300" width="100" height="40" as="geometry" />
        </mxCell>
        <mxCell id="G-jf58LWq5bppQnvcWUJ-38" value="Ukuran" style="ellipse;shape=doubleEllipse;margin=3;whiteSpace=wrap;html=1;align=center;" vertex="1" parent="1">
          <mxGeometry x="164.75" y="1325" width="100" height="40" as="geometry" />
        </mxCell>
        <mxCell id="G-jf58LWq5bppQnvcWUJ-40" style="edgeStyle=orthogonalEdgeStyle;rounded=0;orthogonalLoop=1;jettySize=auto;html=1;exitX=1;exitY=0.25;exitDx=0;exitDy=0;entryX=0;entryY=0.5;entryDx=0;entryDy=0;endArrow=none;endFill=0;" edge="1" parent="1" source="G-jf58LWq5bppQnvcWUJ-39" target="G-jf58LWq5bppQnvcWUJ-37">
          <mxGeometry relative="1" as="geometry" />
        </mxCell>
        <mxCell id="G-jf58LWq5bppQnvcWUJ-42" style="edgeStyle=orthogonalEdgeStyle;rounded=0;orthogonalLoop=1;jettySize=auto;html=1;exitX=1;exitY=0.75;exitDx=0;exitDy=0;entryX=0;entryY=0.5;entryDx=0;entryDy=0;endArrow=none;endFill=0;" edge="1" parent="1" source="G-jf58LWq5bppQnvcWUJ-39" target="G-jf58LWq5bppQnvcWUJ-36">
          <mxGeometry relative="1" as="geometry" />
        </mxCell>
        <mxCell id="G-jf58LWq5bppQnvcWUJ-43" style="edgeStyle=orthogonalEdgeStyle;rounded=0;orthogonalLoop=1;jettySize=auto;html=1;exitX=0;exitY=0.25;exitDx=0;exitDy=0;entryX=1;entryY=0;entryDx=0;entryDy=0;endArrow=none;endFill=0;" edge="1" parent="1" source="G-jf58LWq5bppQnvcWUJ-39" target="G-jf58LWq5bppQnvcWUJ-38">
          <mxGeometry relative="1" as="geometry" />
        </mxCell>
        <mxCell id="G-jf58LWq5bppQnvcWUJ-44" style="edgeStyle=orthogonalEdgeStyle;rounded=0;orthogonalLoop=1;jettySize=auto;html=1;exitX=0;exitY=0.75;exitDx=0;exitDy=0;entryX=0.952;entryY=0.291;entryDx=0;entryDy=0;entryPerimeter=0;endArrow=none;endFill=0;" edge="1" parent="1" source="G-jf58LWq5bppQnvcWUJ-39" target="G-jf58LWq5bppQnvcWUJ-35">
          <mxGeometry relative="1" as="geometry" />
        </mxCell>
        <mxCell id="G-jf58LWq5bppQnvcWUJ-48" style="edgeStyle=orthogonalEdgeStyle;rounded=0;orthogonalLoop=1;jettySize=auto;html=1;exitX=1;exitY=0.5;exitDx=0;exitDy=0;entryX=0;entryY=0.5;entryDx=0;entryDy=0;endArrow=none;endFill=0;" edge="1" parent="1" source="G-jf58LWq5bppQnvcWUJ-39" target="G-jf58LWq5bppQnvcWUJ-33">
          <mxGeometry relative="1" as="geometry" />
        </mxCell>
        <mxCell id="G-jf58LWq5bppQnvcWUJ-39" value="DAFTAR BARANG RESTOK" style="whiteSpace=wrap;html=1;align=center;" vertex="1" parent="1">
          <mxGeometry x="314.75" y="1355" width="130" height="70" as="geometry" />
        </mxCell>
        <mxCell id="G-jf58LWq5bppQnvcWUJ-176" style="edgeStyle=orthogonalEdgeStyle;rounded=0;orthogonalLoop=1;jettySize=auto;html=1;exitX=1;exitY=0.5;exitDx=0;exitDy=0;entryX=0;entryY=0.5;entryDx=0;entryDy=0;endArrow=none;endFill=0;" edge="1" parent="1" source="G-jf58LWq5bppQnvcWUJ-46" target="G-jf58LWq5bppQnvcWUJ-39">
          <mxGeometry relative="1" as="geometry">
            <mxPoint x="155.25" y="1390" as="sourcePoint" />
            <Array as="points">
              <mxPoint x="180" y="1180" />
              <mxPoint x="150" y="1180" />
              <mxPoint x="150" y="1390" />
            </Array>
          </mxGeometry>
        </mxCell>
        <mxCell id="G-jf58LWq5bppQnvcWUJ-46" value="mengirim permintaan" style="shape=rhombus;perimeter=rhombusPerimeter;whiteSpace=wrap;html=1;align=center;" vertex="1" parent="1">
          <mxGeometry x="30" y="1070" width="150" height="90" as="geometry" />
        </mxCell>
        <mxCell id="G-jf58LWq5bppQnvcWUJ-70" style="edgeStyle=orthogonalEdgeStyle;rounded=0;orthogonalLoop=1;jettySize=auto;html=1;exitX=0.5;exitY=0;exitDx=0;exitDy=0;entryX=0.25;entryY=1;entryDx=0;entryDy=0;" edge="1" parent="1" source="G-jf58LWq5bppQnvcWUJ-64" target="G-jf58LWq5bppQnvcWUJ-22">
          <mxGeometry relative="1" as="geometry" />
        </mxCell>
        <mxCell id="G-jf58LWq5bppQnvcWUJ-64" value="Menerima" style="shape=rhombus;perimeter=rhombusPerimeter;whiteSpace=wrap;html=1;align=center;" vertex="1" parent="1">
          <mxGeometry x="-27.5" y="610" width="120" height="60" as="geometry" />
        </mxCell>
        <mxCell id="G-jf58LWq5bppQnvcWUJ-84" style="edgeStyle=orthogonalEdgeStyle;rounded=0;orthogonalLoop=1;jettySize=auto;html=1;exitX=0.75;exitY=0;exitDx=0;exitDy=0;entryX=0;entryY=0.5;entryDx=0;entryDy=0;endArrow=none;endFill=0;" edge="1" parent="1" source="G-jf58LWq5bppQnvcWUJ-73" target="G-jf58LWq5bppQnvcWUJ-80">
          <mxGeometry relative="1" as="geometry" />
        </mxCell>
        <mxCell id="G-jf58LWq5bppQnvcWUJ-86" style="edgeStyle=orthogonalEdgeStyle;rounded=0;orthogonalLoop=1;jettySize=auto;html=1;exitX=0.25;exitY=0;exitDx=0;exitDy=0;entryX=1;entryY=0.5;entryDx=0;entryDy=0;endArrow=none;endFill=0;" edge="1" parent="1" source="G-jf58LWq5bppQnvcWUJ-73" target="G-jf58LWq5bppQnvcWUJ-81">
          <mxGeometry relative="1" as="geometry" />
        </mxCell>
        <mxCell id="G-jf58LWq5bppQnvcWUJ-114" style="edgeStyle=orthogonalEdgeStyle;rounded=0;orthogonalLoop=1;jettySize=auto;html=1;exitX=0.5;exitY=1;exitDx=0;exitDy=0;entryX=0.5;entryY=0;entryDx=0;entryDy=0;endArrow=none;endFill=0;" edge="1" parent="1" source="G-jf58LWq5bppQnvcWUJ-73" target="G-jf58LWq5bppQnvcWUJ-113">
          <mxGeometry relative="1" as="geometry" />
        </mxCell>
        <mxCell id="G-jf58LWq5bppQnvcWUJ-196" style="edgeStyle=orthogonalEdgeStyle;rounded=0;orthogonalLoop=1;jettySize=auto;html=1;exitX=0;exitY=0.5;exitDx=0;exitDy=0;endArrow=none;endFill=0;" edge="1" parent="1" source="G-jf58LWq5bppQnvcWUJ-73" target="G-jf58LWq5bppQnvcWUJ-123">
          <mxGeometry relative="1" as="geometry" />
        </mxCell>
        <mxCell id="G-jf58LWq5bppQnvcWUJ-310" style="edgeStyle=orthogonalEdgeStyle;rounded=0;orthogonalLoop=1;jettySize=auto;html=1;exitX=0.25;exitY=1;exitDx=0;exitDy=0;entryX=0.38;entryY=0.015;entryDx=0;entryDy=0;entryPerimeter=0;endArrow=none;endFill=0;" edge="1" parent="1" source="G-jf58LWq5bppQnvcWUJ-73" target="G-jf58LWq5bppQnvcWUJ-309">
          <mxGeometry relative="1" as="geometry" />
        </mxCell>
        <mxCell id="G-jf58LWq5bppQnvcWUJ-73" value="RISET HARGA JUAL" style="whiteSpace=wrap;html=1;align=center;" vertex="1" parent="1">
          <mxGeometry x="1167" y="795" width="100" height="40" as="geometry" />
        </mxCell>
        <mxCell id="G-jf58LWq5bppQnvcWUJ-80" value="#Kode_Jabatan" style="ellipse;whiteSpace=wrap;html=1;align=center;" vertex="1" parent="1">
          <mxGeometry x="1260.5" y="746.5" width="100" height="40" as="geometry" />
        </mxCell>
        <mxCell id="G-jf58LWq5bppQnvcWUJ-81" value="#Kode_Karyawan" style="ellipse;whiteSpace=wrap;html=1;align=center;" vertex="1" parent="1">
          <mxGeometry x="1080" y="750" width="100" height="40" as="geometry" />
        </mxCell>
        <mxCell id="G-jf58LWq5bppQnvcWUJ-126" style="edgeStyle=orthogonalEdgeStyle;rounded=0;orthogonalLoop=1;jettySize=auto;html=1;exitX=0.25;exitY=0;exitDx=0;exitDy=0;entryX=1;entryY=1;entryDx=0;entryDy=0;endArrow=none;endFill=0;" edge="1" parent="1" source="G-jf58LWq5bppQnvcWUJ-99" target="G-jf58LWq5bppQnvcWUJ-105">
          <mxGeometry relative="1" as="geometry" />
        </mxCell>
        <mxCell id="G-jf58LWq5bppQnvcWUJ-127" style="edgeStyle=orthogonalEdgeStyle;rounded=0;orthogonalLoop=1;jettySize=auto;html=1;exitX=0.75;exitY=0;exitDx=0;exitDy=0;entryX=0.324;entryY=0.927;entryDx=0;entryDy=0;entryPerimeter=0;endArrow=none;endFill=0;" edge="1" parent="1" source="G-jf58LWq5bppQnvcWUJ-99" target="G-jf58LWq5bppQnvcWUJ-106">
          <mxGeometry relative="1" as="geometry" />
        </mxCell>
        <mxCell id="G-jf58LWq5bppQnvcWUJ-128" style="edgeStyle=orthogonalEdgeStyle;rounded=0;orthogonalLoop=1;jettySize=auto;html=1;exitX=1;exitY=0;exitDx=0;exitDy=0;entryX=0;entryY=0.5;entryDx=0;entryDy=0;endArrow=none;endFill=0;" edge="1" parent="1" source="G-jf58LWq5bppQnvcWUJ-99" target="G-jf58LWq5bppQnvcWUJ-107">
          <mxGeometry relative="1" as="geometry" />
        </mxCell>
        <mxCell id="G-jf58LWq5bppQnvcWUJ-129" style="edgeStyle=orthogonalEdgeStyle;rounded=0;orthogonalLoop=1;jettySize=auto;html=1;exitX=1;exitY=0.75;exitDx=0;exitDy=0;entryX=0;entryY=1;entryDx=0;entryDy=0;endArrow=none;endFill=0;" edge="1" parent="1" source="G-jf58LWq5bppQnvcWUJ-99" target="G-jf58LWq5bppQnvcWUJ-108">
          <mxGeometry relative="1" as="geometry" />
        </mxCell>
        <mxCell id="G-jf58LWq5bppQnvcWUJ-130" style="edgeStyle=orthogonalEdgeStyle;rounded=0;orthogonalLoop=1;jettySize=auto;html=1;exitX=0.75;exitY=1;exitDx=0;exitDy=0;entryX=0.5;entryY=0;entryDx=0;entryDy=0;endArrow=none;endFill=0;" edge="1" parent="1" source="G-jf58LWq5bppQnvcWUJ-99" target="G-jf58LWq5bppQnvcWUJ-111">
          <mxGeometry relative="1" as="geometry" />
        </mxCell>
        <mxCell id="G-jf58LWq5bppQnvcWUJ-332" style="edgeStyle=orthogonalEdgeStyle;rounded=0;orthogonalLoop=1;jettySize=auto;html=1;exitX=0;exitY=0.5;exitDx=0;exitDy=0;entryX=1;entryY=0.5;entryDx=0;entryDy=0;endArrow=none;endFill=0;" edge="1" parent="1" source="G-jf58LWq5bppQnvcWUJ-99" target="G-jf58LWq5bppQnvcWUJ-329">
          <mxGeometry relative="1" as="geometry" />
        </mxCell>
        <mxCell id="G-jf58LWq5bppQnvcWUJ-99" value="DAFTAR UPDATE HARGA" style="whiteSpace=wrap;html=1;align=center;" vertex="1" parent="1">
          <mxGeometry x="876" y="417" width="130" height="75" as="geometry" />
        </mxCell>
        <mxCell id="G-jf58LWq5bppQnvcWUJ-105" value="Tanggal kerja" style="ellipse;whiteSpace=wrap;html=1;align=center;" vertex="1" parent="1">
          <mxGeometry x="816" y="350" width="100" height="40" as="geometry" />
        </mxCell>
        <mxCell id="G-jf58LWq5bppQnvcWUJ-106" value="Tanggal Update" style="ellipse;whiteSpace=wrap;html=1;align=center;" vertex="1" parent="1">
          <mxGeometry x="966" y="340" width="100" height="40" as="geometry" />
        </mxCell>
        <mxCell id="G-jf58LWq5bppQnvcWUJ-107" value="Harga Update" style="ellipse;whiteSpace=wrap;html=1;align=center;" vertex="1" parent="1">
          <mxGeometry x="1056" y="385" width="100" height="40" as="geometry" />
        </mxCell>
        <mxCell id="G-jf58LWq5bppQnvcWUJ-108" value="#Kode_Update" style="ellipse;whiteSpace=wrap;html=1;align=center;" vertex="1" parent="1">
          <mxGeometry x="1056" y="480" width="100" height="40" as="geometry" />
        </mxCell>
        <mxCell id="G-jf58LWq5bppQnvcWUJ-109" value="#Kode_Barang" style="ellipse;whiteSpace=wrap;html=1;align=center;" vertex="1" parent="1">
          <mxGeometry x="300" y="9" width="100" height="40" as="geometry" />
        </mxCell>
        <mxCell id="G-jf58LWq5bppQnvcWUJ-111" value="Nama barang" style="ellipse;whiteSpace=wrap;html=1;align=center;" vertex="1" parent="1">
          <mxGeometry x="946" y="515" width="100" height="40" as="geometry" />
        </mxCell>
        <mxCell id="G-jf58LWq5bppQnvcWUJ-297" style="edgeStyle=orthogonalEdgeStyle;rounded=0;orthogonalLoop=1;jettySize=auto;html=1;exitX=0.5;exitY=1;exitDx=0;exitDy=0;entryX=0.75;entryY=1;entryDx=0;entryDy=0;endArrow=none;endFill=0;" edge="1" parent="1" source="G-jf58LWq5bppQnvcWUJ-113" target="G-jf58LWq5bppQnvcWUJ-39">
          <mxGeometry relative="1" as="geometry">
            <Array as="points">
              <mxPoint x="1217" y="1490" />
              <mxPoint x="412" y="1490" />
            </Array>
          </mxGeometry>
        </mxCell>
        <mxCell id="G-jf58LWq5bppQnvcWUJ-113" value="Mengakses" style="shape=rhombus;perimeter=rhombusPerimeter;whiteSpace=wrap;html=1;align=center;" vertex="1" parent="1">
          <mxGeometry x="1155" y="1110" width="120" height="60" as="geometry" />
        </mxCell>
        <mxCell id="G-jf58LWq5bppQnvcWUJ-197" style="edgeStyle=orthogonalEdgeStyle;rounded=0;orthogonalLoop=1;jettySize=auto;html=1;exitX=0;exitY=0.5;exitDx=0;exitDy=0;entryX=0.25;entryY=1;entryDx=0;entryDy=0;endArrow=none;endFill=0;" edge="1" parent="1" source="G-jf58LWq5bppQnvcWUJ-123" target="G-jf58LWq5bppQnvcWUJ-99">
          <mxGeometry relative="1" as="geometry" />
        </mxCell>
        <mxCell id="G-jf58LWq5bppQnvcWUJ-123" value="Hasil" style="shape=rhombus;perimeter=rhombusPerimeter;whiteSpace=wrap;html=1;align=center;" vertex="1" parent="1">
          <mxGeometry x="1000" y="660" width="120" height="60" as="geometry" />
        </mxCell>
        <mxCell id="G-jf58LWq5bppQnvcWUJ-143" style="edgeStyle=orthogonalEdgeStyle;rounded=0;orthogonalLoop=1;jettySize=auto;html=1;exitX=0;exitY=1;exitDx=0;exitDy=0;entryX=1;entryY=0;entryDx=0;entryDy=0;endArrow=none;endFill=0;" edge="1" parent="1" source="G-jf58LWq5bppQnvcWUJ-132" target="G-jf58LWq5bppQnvcWUJ-139">
          <mxGeometry relative="1" as="geometry" />
        </mxCell>
        <mxCell id="G-jf58LWq5bppQnvcWUJ-144" style="edgeStyle=orthogonalEdgeStyle;rounded=0;orthogonalLoop=1;jettySize=auto;html=1;exitX=0.25;exitY=1;exitDx=0;exitDy=0;entryX=0.706;entryY=0.063;entryDx=0;entryDy=0;entryPerimeter=0;endArrow=none;endFill=0;" edge="1" parent="1" source="G-jf58LWq5bppQnvcWUJ-132" target="G-jf58LWq5bppQnvcWUJ-138">
          <mxGeometry relative="1" as="geometry" />
        </mxCell>
        <mxCell id="G-jf58LWq5bppQnvcWUJ-158" style="edgeStyle=orthogonalEdgeStyle;rounded=0;orthogonalLoop=1;jettySize=auto;html=1;exitX=1;exitY=0.5;exitDx=0;exitDy=0;entryX=0;entryY=0.5;entryDx=0;entryDy=0;endArrow=none;endFill=0;" edge="1" parent="1" source="G-jf58LWq5bppQnvcWUJ-132" target="G-jf58LWq5bppQnvcWUJ-157">
          <mxGeometry relative="1" as="geometry" />
        </mxCell>
        <mxCell id="G-jf58LWq5bppQnvcWUJ-132" value="CREW STORE" style="whiteSpace=wrap;html=1;align=center;" vertex="1" parent="1">
          <mxGeometry x="381.5" y="767" width="100" height="40" as="geometry" />
        </mxCell>
        <mxCell id="G-jf58LWq5bppQnvcWUJ-138" value="#Kode_Jabatan" style="ellipse;whiteSpace=wrap;html=1;align=center;" vertex="1" parent="1">
          <mxGeometry x="336.5" y="856" width="100" height="40" as="geometry" />
        </mxCell>
        <mxCell id="G-jf58LWq5bppQnvcWUJ-139" value="#Kode_Karyawan" style="ellipse;whiteSpace=wrap;html=1;align=center;" vertex="1" parent="1">
          <mxGeometry x="263" y="816" width="100" height="40" as="geometry" />
        </mxCell>
        <mxCell id="G-jf58LWq5bppQnvcWUJ-157" value="Transaksi" style="shape=rhombus;perimeter=rhombusPerimeter;whiteSpace=wrap;html=1;align=center;" vertex="1" parent="1">
          <mxGeometry x="534.5" y="756" width="120" height="60" as="geometry" />
        </mxCell>
        <mxCell id="G-jf58LWq5bppQnvcWUJ-174" style="edgeStyle=orthogonalEdgeStyle;rounded=0;orthogonalLoop=1;jettySize=auto;html=1;exitX=0;exitY=0.5;exitDx=0;exitDy=0;entryX=1;entryY=0.5;entryDx=0;entryDy=0;endArrow=none;endFill=0;" edge="1" parent="1" source="G-jf58LWq5bppQnvcWUJ-160" target="G-jf58LWq5bppQnvcWUJ-157">
          <mxGeometry relative="1" as="geometry" />
        </mxCell>
        <mxCell id="G-jf58LWq5bppQnvcWUJ-160" value="CUSTOMER" style="whiteSpace=wrap;html=1;align=center;" vertex="1" parent="1">
          <mxGeometry x="714.5" y="766" width="100" height="40" as="geometry" />
        </mxCell>
        <mxCell id="G-jf58LWq5bppQnvcWUJ-172" style="edgeStyle=orthogonalEdgeStyle;rounded=0;orthogonalLoop=1;jettySize=auto;html=1;exitX=1;exitY=0;exitDx=0;exitDy=0;entryX=0.75;entryY=1;entryDx=0;entryDy=0;endArrow=none;endFill=0;" edge="1" parent="1" source="G-jf58LWq5bppQnvcWUJ-167" target="G-jf58LWq5bppQnvcWUJ-160">
          <mxGeometry relative="1" as="geometry" />
        </mxCell>
        <mxCell id="G-jf58LWq5bppQnvcWUJ-167" value="Nama Customer" style="ellipse;whiteSpace=wrap;html=1;align=center;" vertex="1" parent="1">
          <mxGeometry x="704" y="825" width="100" height="40" as="geometry" />
        </mxCell>
        <mxCell id="G-jf58LWq5bppQnvcWUJ-171" style="edgeStyle=orthogonalEdgeStyle;rounded=0;orthogonalLoop=1;jettySize=auto;html=1;exitX=0;exitY=0;exitDx=0;exitDy=0;entryX=1;entryY=0.75;entryDx=0;entryDy=0;endArrow=none;endFill=0;" edge="1" parent="1" source="G-jf58LWq5bppQnvcWUJ-168" target="G-jf58LWq5bppQnvcWUJ-160">
          <mxGeometry relative="1" as="geometry" />
        </mxCell>
        <mxCell id="G-jf58LWq5bppQnvcWUJ-168" value="#Kode_Customer" style="ellipse;whiteSpace=wrap;html=1;align=center;" vertex="1" parent="1">
          <mxGeometry x="824.5" y="790" width="100" height="40" as="geometry" />
        </mxCell>
        <mxCell id="G-jf58LWq5bppQnvcWUJ-170" style="edgeStyle=orthogonalEdgeStyle;rounded=0;orthogonalLoop=1;jettySize=auto;html=1;exitX=0.5;exitY=1;exitDx=0;exitDy=0;entryX=0.25;entryY=0;entryDx=0;entryDy=0;endArrow=none;endFill=0;" edge="1" parent="1" source="G-jf58LWq5bppQnvcWUJ-169" target="G-jf58LWq5bppQnvcWUJ-160">
          <mxGeometry relative="1" as="geometry" />
        </mxCell>
        <mxCell id="G-jf58LWq5bppQnvcWUJ-169" value="Alamat" style="ellipse;whiteSpace=wrap;html=1;align=center;" vertex="1" parent="1">
          <mxGeometry x="694.5" y="695" width="100" height="40" as="geometry" />
        </mxCell>
        <mxCell id="G-jf58LWq5bppQnvcWUJ-233" style="edgeStyle=orthogonalEdgeStyle;rounded=0;orthogonalLoop=1;jettySize=auto;html=1;exitX=0.25;exitY=0;exitDx=0;exitDy=0;" edge="1" parent="1" source="G-jf58LWq5bppQnvcWUJ-199" target="G-jf58LWq5bppQnvcWUJ-227">
          <mxGeometry relative="1" as="geometry" />
        </mxCell>
        <mxCell id="G-jf58LWq5bppQnvcWUJ-308" style="edgeStyle=orthogonalEdgeStyle;rounded=0;orthogonalLoop=1;jettySize=auto;html=1;exitX=0.75;exitY=1;exitDx=0;exitDy=0;entryX=0;entryY=0;entryDx=0;entryDy=0;endArrow=none;endFill=0;" edge="1" parent="1" source="G-jf58LWq5bppQnvcWUJ-199" target="G-jf58LWq5bppQnvcWUJ-307">
          <mxGeometry relative="1" as="geometry" />
        </mxCell>
        <mxCell id="G-jf58LWq5bppQnvcWUJ-199" value="CREW STORE" style="whiteSpace=wrap;html=1;align=center;" vertex="1" parent="1">
          <mxGeometry x="382.5" y="767" width="100" height="40" as="geometry" />
        </mxCell>
        <mxCell id="G-jf58LWq5bppQnvcWUJ-200" value="#Kode_Karyawan" style="ellipse;whiteSpace=wrap;html=1;align=center;" vertex="1" parent="1">
          <mxGeometry x="264" y="816" width="100" height="40" as="geometry" />
        </mxCell>
        <mxCell id="G-jf58LWq5bppQnvcWUJ-201" value="#Kode_Jabatan" style="ellipse;whiteSpace=wrap;html=1;align=center;" vertex="1" parent="1">
          <mxGeometry x="337.5" y="856" width="100" height="40" as="geometry" />
        </mxCell>
        <mxCell id="G-jf58LWq5bppQnvcWUJ-265" style="edgeStyle=orthogonalEdgeStyle;rounded=0;orthogonalLoop=1;jettySize=auto;html=1;exitX=0.5;exitY=1;exitDx=0;exitDy=0;entryX=0.25;entryY=0;entryDx=0;entryDy=0;endArrow=none;endFill=0;" edge="1" parent="1" source="G-jf58LWq5bppQnvcWUJ-202" target="G-jf58LWq5bppQnvcWUJ-236">
          <mxGeometry relative="1" as="geometry" />
        </mxCell>
        <mxCell id="G-jf58LWq5bppQnvcWUJ-293" style="edgeStyle=orthogonalEdgeStyle;rounded=0;orthogonalLoop=1;jettySize=auto;html=1;exitX=1;exitY=1;exitDx=0;exitDy=0;entryX=0.628;entryY=0.025;entryDx=0;entryDy=0;entryPerimeter=0;endArrow=none;endFill=0;" edge="1" parent="1" source="G-jf58LWq5bppQnvcWUJ-202" target="G-jf58LWq5bppQnvcWUJ-266">
          <mxGeometry relative="1" as="geometry">
            <Array as="points">
              <mxPoint x="625" y="970" />
              <mxPoint x="883" y="970" />
            </Array>
          </mxGeometry>
        </mxCell>
        <mxCell id="G-jf58LWq5bppQnvcWUJ-202" value="Transaksi" style="shape=rhombus;perimeter=rhombusPerimeter;whiteSpace=wrap;html=1;align=center;" vertex="1" parent="1">
          <mxGeometry x="535.5" y="756" width="120" height="60" as="geometry" />
        </mxCell>
        <mxCell id="G-jf58LWq5bppQnvcWUJ-203" value="Alamat" style="ellipse;whiteSpace=wrap;html=1;align=center;" vertex="1" parent="1">
          <mxGeometry x="695.5" y="695" width="100" height="40" as="geometry" />
        </mxCell>
        <mxCell id="G-jf58LWq5bppQnvcWUJ-204" value="CUSTOMER" style="whiteSpace=wrap;html=1;align=center;" vertex="1" parent="1">
          <mxGeometry x="715.5" y="766" width="100" height="40" as="geometry" />
        </mxCell>
        <mxCell id="G-jf58LWq5bppQnvcWUJ-205" value="Nama Customer" style="ellipse;whiteSpace=wrap;html=1;align=center;" vertex="1" parent="1">
          <mxGeometry x="705" y="825" width="100" height="40" as="geometry" />
        </mxCell>
        <mxCell id="G-jf58LWq5bppQnvcWUJ-223" style="edgeStyle=orthogonalEdgeStyle;rounded=0;orthogonalLoop=1;jettySize=auto;html=1;exitX=0.25;exitY=0;exitDx=0;exitDy=0;entryX=0.713;entryY=1.02;entryDx=0;entryDy=0;entryPerimeter=0;endArrow=none;endFill=0;" edge="1" parent="1" source="G-jf58LWq5bppQnvcWUJ-213" target="G-jf58LWq5bppQnvcWUJ-222">
          <mxGeometry relative="1" as="geometry" />
        </mxCell>
        <mxCell id="G-jf58LWq5bppQnvcWUJ-224" style="edgeStyle=orthogonalEdgeStyle;rounded=0;orthogonalLoop=1;jettySize=auto;html=1;exitX=0.5;exitY=0;exitDx=0;exitDy=0;entryX=0.287;entryY=0.946;entryDx=0;entryDy=0;entryPerimeter=0;endArrow=none;endFill=0;" edge="1" parent="1" source="G-jf58LWq5bppQnvcWUJ-213" target="G-jf58LWq5bppQnvcWUJ-221">
          <mxGeometry relative="1" as="geometry" />
        </mxCell>
        <mxCell id="G-jf58LWq5bppQnvcWUJ-225" style="edgeStyle=orthogonalEdgeStyle;rounded=0;orthogonalLoop=1;jettySize=auto;html=1;exitX=0.75;exitY=0;exitDx=0;exitDy=0;entryX=0;entryY=0.5;entryDx=0;entryDy=0;endArrow=none;endFill=0;" edge="1" parent="1" source="G-jf58LWq5bppQnvcWUJ-213" target="G-jf58LWq5bppQnvcWUJ-220">
          <mxGeometry relative="1" as="geometry" />
        </mxCell>
        <mxCell id="G-jf58LWq5bppQnvcWUJ-226" style="edgeStyle=orthogonalEdgeStyle;rounded=0;orthogonalLoop=1;jettySize=auto;html=1;exitX=1;exitY=0.25;exitDx=0;exitDy=0;entryX=0;entryY=0;entryDx=0;entryDy=0;endArrow=none;endFill=0;" edge="1" parent="1" source="G-jf58LWq5bppQnvcWUJ-213" target="G-jf58LWq5bppQnvcWUJ-219">
          <mxGeometry relative="1" as="geometry">
            <Array as="points">
              <mxPoint x="265.5" y="523.5" />
              <mxPoint x="285.5" y="523.5" />
              <mxPoint x="285.5" y="536.5" />
              <mxPoint x="261.5" y="536.5" />
            </Array>
          </mxGeometry>
        </mxCell>
        <mxCell id="G-jf58LWq5bppQnvcWUJ-259" style="edgeStyle=orthogonalEdgeStyle;rounded=0;orthogonalLoop=1;jettySize=auto;html=1;exitX=0.5;exitY=1;exitDx=0;exitDy=0;entryX=0.5;entryY=0;entryDx=0;entryDy=0;" edge="1" parent="1" source="G-jf58LWq5bppQnvcWUJ-213" target="G-jf58LWq5bppQnvcWUJ-258">
          <mxGeometry relative="1" as="geometry" />
        </mxCell>
        <mxCell id="G-jf58LWq5bppQnvcWUJ-264" style="edgeStyle=orthogonalEdgeStyle;rounded=0;orthogonalLoop=1;jettySize=auto;html=1;exitX=0.25;exitY=1;exitDx=0;exitDy=0;entryX=0.708;entryY=0.038;entryDx=0;entryDy=0;entryPerimeter=0;" edge="1" parent="1" source="G-jf58LWq5bppQnvcWUJ-213" target="G-jf58LWq5bppQnvcWUJ-263">
          <mxGeometry relative="1" as="geometry" />
        </mxCell>
        <mxCell id="G-jf58LWq5bppQnvcWUJ-213" value="GUDANG" style="whiteSpace=wrap;html=1;align=center;" vertex="1" parent="1">
          <mxGeometry x="165" y="476.5" width="100" height="40" as="geometry" />
        </mxCell>
        <mxCell id="G-jf58LWq5bppQnvcWUJ-219" value="#Kode_Gudang" style="ellipse;whiteSpace=wrap;html=1;align=center;" vertex="1" parent="1">
          <mxGeometry x="246.5" y="553.5" width="100" height="40" as="geometry" />
        </mxCell>
        <mxCell id="G-jf58LWq5bppQnvcWUJ-220" value="Nama Barang" style="ellipse;whiteSpace=wrap;html=1;align=center;" vertex="1" parent="1">
          <mxGeometry x="264.75" y="411.5" width="100" height="40" as="geometry" />
        </mxCell>
        <mxCell id="G-jf58LWq5bppQnvcWUJ-221" value="#Kode_Rak" style="ellipse;whiteSpace=wrap;html=1;align=center;" vertex="1" parent="1">
          <mxGeometry x="198" y="356.5" width="100" height="40" as="geometry" />
        </mxCell>
        <mxCell id="G-jf58LWq5bppQnvcWUJ-222" value="#Kode_Barang" style="ellipse;whiteSpace=wrap;html=1;align=center;" vertex="1" parent="1">
          <mxGeometry x="106.5" y="396.5" width="100" height="40" as="geometry" />
        </mxCell>
        <mxCell id="G-jf58LWq5bppQnvcWUJ-232" style="edgeStyle=orthogonalEdgeStyle;rounded=0;orthogonalLoop=1;jettySize=auto;html=1;exitX=0;exitY=0.5;exitDx=0;exitDy=0;entryX=1;entryY=0.5;entryDx=0;entryDy=0;" edge="1" parent="1" source="G-jf58LWq5bppQnvcWUJ-227" target="G-jf58LWq5bppQnvcWUJ-213">
          <mxGeometry relative="1" as="geometry" />
        </mxCell>
        <mxCell id="G-jf58LWq5bppQnvcWUJ-227" value="Mengakses" style="shape=rhombus;perimeter=rhombusPerimeter;whiteSpace=wrap;html=1;align=center;" vertex="1" parent="1">
          <mxGeometry x="346.75" y="505" width="120" height="60" as="geometry" />
        </mxCell>
        <mxCell id="G-jf58LWq5bppQnvcWUJ-250" style="edgeStyle=orthogonalEdgeStyle;rounded=0;orthogonalLoop=1;jettySize=auto;html=1;exitX=0;exitY=0.75;exitDx=0;exitDy=0;entryX=0.995;entryY=0.793;entryDx=0;entryDy=0;entryPerimeter=0;endArrow=none;endFill=0;" edge="1" parent="1" source="G-jf58LWq5bppQnvcWUJ-236" target="G-jf58LWq5bppQnvcWUJ-242">
          <mxGeometry relative="1" as="geometry" />
        </mxCell>
        <mxCell id="G-jf58LWq5bppQnvcWUJ-251" style="edgeStyle=orthogonalEdgeStyle;rounded=0;orthogonalLoop=1;jettySize=auto;html=1;exitX=0;exitY=0.75;exitDx=0;exitDy=0;entryX=0.769;entryY=-0.017;entryDx=0;entryDy=0;entryPerimeter=0;endArrow=none;endFill=0;" edge="1" parent="1" source="G-jf58LWq5bppQnvcWUJ-236" target="G-jf58LWq5bppQnvcWUJ-241">
          <mxGeometry relative="1" as="geometry" />
        </mxCell>
        <mxCell id="G-jf58LWq5bppQnvcWUJ-252" style="edgeStyle=orthogonalEdgeStyle;rounded=0;orthogonalLoop=1;jettySize=auto;html=1;exitX=0.25;exitY=1;exitDx=0;exitDy=0;entryX=0.969;entryY=0.187;entryDx=0;entryDy=0;entryPerimeter=0;endArrow=none;endFill=0;" edge="1" parent="1" source="G-jf58LWq5bppQnvcWUJ-236" target="G-jf58LWq5bppQnvcWUJ-249">
          <mxGeometry relative="1" as="geometry">
            <Array as="points">
              <mxPoint x="370" y="1170" />
              <mxPoint x="277" y="1170" />
            </Array>
          </mxGeometry>
        </mxCell>
        <mxCell id="G-jf58LWq5bppQnvcWUJ-253" style="edgeStyle=orthogonalEdgeStyle;rounded=0;orthogonalLoop=1;jettySize=auto;html=1;exitX=0.25;exitY=1;exitDx=0;exitDy=0;entryX=0.652;entryY=-0.063;entryDx=0;entryDy=0;entryPerimeter=0;endArrow=none;endFill=0;" edge="1" parent="1" source="G-jf58LWq5bppQnvcWUJ-236" target="G-jf58LWq5bppQnvcWUJ-246">
          <mxGeometry relative="1" as="geometry">
            <Array as="points">
              <mxPoint x="370" y="1170" />
              <mxPoint x="332" y="1170" />
            </Array>
          </mxGeometry>
        </mxCell>
        <mxCell id="G-jf58LWq5bppQnvcWUJ-254" style="edgeStyle=orthogonalEdgeStyle;rounded=0;orthogonalLoop=1;jettySize=auto;html=1;exitX=0.5;exitY=1;exitDx=0;exitDy=0;entryX=0.5;entryY=0;entryDx=0;entryDy=0;endArrow=none;endFill=0;" edge="1" parent="1" source="G-jf58LWq5bppQnvcWUJ-236" target="G-jf58LWq5bppQnvcWUJ-244">
          <mxGeometry relative="1" as="geometry" />
        </mxCell>
        <mxCell id="G-jf58LWq5bppQnvcWUJ-255" style="edgeStyle=orthogonalEdgeStyle;rounded=0;orthogonalLoop=1;jettySize=auto;html=1;exitX=0.75;exitY=1;exitDx=0;exitDy=0;entryX=0;entryY=0.5;entryDx=0;entryDy=0;endArrow=none;endFill=0;" edge="1" parent="1" source="G-jf58LWq5bppQnvcWUJ-236" target="G-jf58LWq5bppQnvcWUJ-247">
          <mxGeometry relative="1" as="geometry" />
        </mxCell>
        <mxCell id="G-jf58LWq5bppQnvcWUJ-256" style="edgeStyle=orthogonalEdgeStyle;rounded=0;orthogonalLoop=1;jettySize=auto;html=1;exitX=0.75;exitY=1;exitDx=0;exitDy=0;entryX=0;entryY=0.5;entryDx=0;entryDy=0;endArrow=none;endFill=0;" edge="1" parent="1" source="G-jf58LWq5bppQnvcWUJ-236" target="G-jf58LWq5bppQnvcWUJ-248">
          <mxGeometry relative="1" as="geometry" />
        </mxCell>
        <mxCell id="G-jf58LWq5bppQnvcWUJ-257" style="edgeStyle=orthogonalEdgeStyle;rounded=0;orthogonalLoop=1;jettySize=auto;html=1;exitX=1;exitY=1;exitDx=0;exitDy=0;entryX=-0.008;entryY=0.77;entryDx=0;entryDy=0;entryPerimeter=0;endArrow=none;endFill=0;" edge="1" parent="1" source="G-jf58LWq5bppQnvcWUJ-236" target="G-jf58LWq5bppQnvcWUJ-245">
          <mxGeometry relative="1" as="geometry" />
        </mxCell>
        <mxCell id="G-jf58LWq5bppQnvcWUJ-236" value="BARANG" style="whiteSpace=wrap;html=1;align=center;" vertex="1" parent="1">
          <mxGeometry x="344.75" y="1030" width="100" height="40" as="geometry" />
        </mxCell>
        <mxCell id="G-jf58LWq5bppQnvcWUJ-241" value="#kode_rak" style="ellipse;whiteSpace=wrap;html=1;align=center;" vertex="1" parent="1">
          <mxGeometry x="200" y="1130" width="100" height="40" as="geometry" />
        </mxCell>
        <mxCell id="G-jf58LWq5bppQnvcWUJ-242" value="#kode_Supplier" style="ellipse;whiteSpace=wrap;html=1;align=center;" vertex="1" parent="1">
          <mxGeometry x="127" y="1025" width="100" height="40" as="geometry" />
        </mxCell>
        <mxCell id="G-jf58LWq5bppQnvcWUJ-244" value="Harga" style="ellipse;whiteSpace=wrap;html=1;align=center;" vertex="1" parent="1">
          <mxGeometry x="351.75" y="1200" width="100" height="40" as="geometry" />
        </mxCell>
        <mxCell id="G-jf58LWq5bppQnvcWUJ-245" value="Jenis barang" style="ellipse;whiteSpace=wrap;html=1;align=center;" vertex="1" parent="1">
          <mxGeometry x="491.5" y="1070" width="100" height="40" as="geometry" />
        </mxCell>
        <mxCell id="G-jf58LWq5bppQnvcWUJ-246" value="Tgl Expired" style="ellipse;whiteSpace=wrap;html=1;align=center;" vertex="1" parent="1">
          <mxGeometry x="266.5" y="1240" width="100" height="40" as="geometry" />
        </mxCell>
        <mxCell id="G-jf58LWq5bppQnvcWUJ-247" value="Nama Barang" style="ellipse;whiteSpace=wrap;html=1;align=center;" vertex="1" parent="1">
          <mxGeometry x="451.75" y="1170" width="100" height="40" as="geometry" />
        </mxCell>
        <mxCell id="G-jf58LWq5bppQnvcWUJ-248" value="#Kode_Barang" style="ellipse;whiteSpace=wrap;html=1;align=center;" vertex="1" parent="1">
          <mxGeometry x="511.75" y="1120" width="100" height="40" as="geometry" />
        </mxCell>
        <mxCell id="G-jf58LWq5bppQnvcWUJ-249" value="Ukuran" style="ellipse;shape=doubleEllipse;margin=3;whiteSpace=wrap;html=1;align=center;" vertex="1" parent="1">
          <mxGeometry x="180" y="1190" width="100" height="40" as="geometry" />
        </mxCell>
        <mxCell id="G-jf58LWq5bppQnvcWUJ-261" style="edgeStyle=orthogonalEdgeStyle;rounded=0;orthogonalLoop=1;jettySize=auto;html=1;exitX=0.5;exitY=1;exitDx=0;exitDy=0;entryX=0;entryY=0;entryDx=0;entryDy=0;" edge="1" parent="1" source="G-jf58LWq5bppQnvcWUJ-258" target="G-jf58LWq5bppQnvcWUJ-236">
          <mxGeometry relative="1" as="geometry">
            <Array as="points">
              <mxPoint x="215" y="1010" />
              <mxPoint x="345" y="1010" />
            </Array>
          </mxGeometry>
        </mxCell>
        <mxCell id="G-jf58LWq5bppQnvcWUJ-258" value="Berisi" style="shape=rhombus;perimeter=rhombusPerimeter;whiteSpace=wrap;html=1;align=center;" vertex="1" parent="1">
          <mxGeometry x="154.75" y="730" width="120" height="60" as="geometry" />
        </mxCell>
        <mxCell id="G-jf58LWq5bppQnvcWUJ-263" value="Nama gudang" style="ellipse;whiteSpace=wrap;html=1;align=center;" vertex="1" parent="1">
          <mxGeometry x="92" y="550" width="100" height="40" as="geometry" />
        </mxCell>
        <mxCell id="G-jf58LWq5bppQnvcWUJ-279" style="edgeStyle=orthogonalEdgeStyle;rounded=0;orthogonalLoop=1;jettySize=auto;html=1;exitX=0;exitY=0;exitDx=0;exitDy=0;entryX=0.5;entryY=1;entryDx=0;entryDy=0;endArrow=none;endFill=0;" edge="1" parent="1" source="G-jf58LWq5bppQnvcWUJ-266" target="G-jf58LWq5bppQnvcWUJ-269">
          <mxGeometry relative="1" as="geometry" />
        </mxCell>
        <mxCell id="G-jf58LWq5bppQnvcWUJ-280" style="edgeStyle=orthogonalEdgeStyle;rounded=0;orthogonalLoop=1;jettySize=auto;html=1;exitX=0.75;exitY=0;exitDx=0;exitDy=0;entryX=0;entryY=1;entryDx=0;entryDy=0;endArrow=none;endFill=0;" edge="1" parent="1" source="G-jf58LWq5bppQnvcWUJ-266" target="G-jf58LWq5bppQnvcWUJ-270">
          <mxGeometry relative="1" as="geometry" />
        </mxCell>
        <mxCell id="G-jf58LWq5bppQnvcWUJ-281" style="edgeStyle=orthogonalEdgeStyle;rounded=0;orthogonalLoop=1;jettySize=auto;html=1;exitX=1;exitY=0;exitDx=0;exitDy=0;entryX=0;entryY=1;entryDx=0;entryDy=0;endArrow=none;endFill=0;" edge="1" parent="1" source="G-jf58LWq5bppQnvcWUJ-266" target="G-jf58LWq5bppQnvcWUJ-271">
          <mxGeometry relative="1" as="geometry" />
        </mxCell>
        <mxCell id="G-jf58LWq5bppQnvcWUJ-284" style="edgeStyle=orthogonalEdgeStyle;rounded=0;orthogonalLoop=1;jettySize=auto;html=1;exitX=0.75;exitY=1;exitDx=0;exitDy=0;entryX=0.31;entryY=0.038;entryDx=0;entryDy=0;entryPerimeter=0;endArrow=none;endFill=0;" edge="1" parent="1" source="G-jf58LWq5bppQnvcWUJ-266" target="G-jf58LWq5bppQnvcWUJ-273">
          <mxGeometry relative="1" as="geometry" />
        </mxCell>
        <mxCell id="G-jf58LWq5bppQnvcWUJ-285" style="edgeStyle=orthogonalEdgeStyle;rounded=0;orthogonalLoop=1;jettySize=auto;html=1;exitX=0;exitY=0.75;exitDx=0;exitDy=0;entryX=0.765;entryY=0.075;entryDx=0;entryDy=0;entryPerimeter=0;endArrow=none;endFill=0;" edge="1" parent="1" source="G-jf58LWq5bppQnvcWUJ-266" target="G-jf58LWq5bppQnvcWUJ-275">
          <mxGeometry relative="1" as="geometry" />
        </mxCell>
        <mxCell id="G-jf58LWq5bppQnvcWUJ-286" style="edgeStyle=orthogonalEdgeStyle;rounded=0;orthogonalLoop=1;jettySize=auto;html=1;exitX=0.25;exitY=1;exitDx=0;exitDy=0;entryX=0.5;entryY=0;entryDx=0;entryDy=0;endArrow=none;endFill=0;" edge="1" parent="1" source="G-jf58LWq5bppQnvcWUJ-266" target="G-jf58LWq5bppQnvcWUJ-274">
          <mxGeometry relative="1" as="geometry" />
        </mxCell>
        <mxCell id="G-jf58LWq5bppQnvcWUJ-290" style="edgeStyle=orthogonalEdgeStyle;rounded=0;orthogonalLoop=1;jettySize=auto;html=1;exitX=0;exitY=0.5;exitDx=0;exitDy=0;entryX=0.5;entryY=1;entryDx=0;entryDy=0;endArrow=none;endFill=0;" edge="1" parent="1" source="G-jf58LWq5bppQnvcWUJ-266" target="G-jf58LWq5bppQnvcWUJ-289">
          <mxGeometry relative="1" as="geometry" />
        </mxCell>
        <mxCell id="G-jf58LWq5bppQnvcWUJ-295" style="edgeStyle=orthogonalEdgeStyle;rounded=0;orthogonalLoop=1;jettySize=auto;html=1;exitX=1;exitY=0.25;exitDx=0;exitDy=0;entryX=0.01;entryY=0.265;entryDx=0;entryDy=0;entryPerimeter=0;endArrow=none;endFill=0;" edge="1" parent="1" source="G-jf58LWq5bppQnvcWUJ-266" target="G-jf58LWq5bppQnvcWUJ-268">
          <mxGeometry relative="1" as="geometry" />
        </mxCell>
        <mxCell id="G-jf58LWq5bppQnvcWUJ-296" style="edgeStyle=orthogonalEdgeStyle;rounded=0;orthogonalLoop=1;jettySize=auto;html=1;exitX=1;exitY=0.75;exitDx=0;exitDy=0;entryX=-0.005;entryY=0.302;entryDx=0;entryDy=0;entryPerimeter=0;endArrow=none;endFill=0;" edge="1" parent="1" source="G-jf58LWq5bppQnvcWUJ-266" target="G-jf58LWq5bppQnvcWUJ-272">
          <mxGeometry relative="1" as="geometry">
            <Array as="points">
              <mxPoint x="920" y="1227" />
            </Array>
          </mxGeometry>
        </mxCell>
        <mxCell id="G-jf58LWq5bppQnvcWUJ-266" value="BUKTI TRANSAKSI" style="whiteSpace=wrap;html=1;align=center;" vertex="1" parent="1">
          <mxGeometry x="820" y="1155" width="100" height="40" as="geometry" />
        </mxCell>
        <mxCell id="G-jf58LWq5bppQnvcWUJ-269" value="#Kode_Karyawan" style="ellipse;whiteSpace=wrap;html=1;align=center;" vertex="1" parent="1">
          <mxGeometry x="765.5" y="1050" width="100" height="40" as="geometry" />
        </mxCell>
        <mxCell id="G-jf58LWq5bppQnvcWUJ-270" value="Tanggal" style="ellipse;whiteSpace=wrap;html=1;align=center;" vertex="1" parent="1">
          <mxGeometry x="930" y="1030" width="100" height="40" as="geometry" />
        </mxCell>
        <mxCell id="G-jf58LWq5bppQnvcWUJ-271" value="Harga" style="ellipse;whiteSpace=wrap;html=1;align=center;" vertex="1" parent="1">
          <mxGeometry x="980" y="1090" width="100" height="40" as="geometry" />
        </mxCell>
        <mxCell id="G-jf58LWq5bppQnvcWUJ-272" value="#Kode_Barang" style="ellipse;whiteSpace=wrap;html=1;align=center;" vertex="1" parent="1">
          <mxGeometry x="1030" y="1215" width="100" height="40" as="geometry" />
        </mxCell>
        <mxCell id="G-jf58LWq5bppQnvcWUJ-273" value="QTY" style="ellipse;whiteSpace=wrap;html=1;align=center;" vertex="1" parent="1">
          <mxGeometry x="970" y="1275" width="100" height="40" as="geometry" />
        </mxCell>
        <mxCell id="G-jf58LWq5bppQnvcWUJ-274" value="Nama Barang" style="ellipse;whiteSpace=wrap;html=1;align=center;" vertex="1" parent="1">
          <mxGeometry x="740" y="1275" width="100" height="40" as="geometry" />
        </mxCell>
        <mxCell id="G-jf58LWq5bppQnvcWUJ-275" value="#Kode_Transaksi" style="ellipse;whiteSpace=wrap;html=1;align=center;" vertex="1" parent="1">
          <mxGeometry x="680" y="1235" width="100" height="40" as="geometry" />
        </mxCell>
        <mxCell id="G-jf58LWq5bppQnvcWUJ-291" style="edgeStyle=orthogonalEdgeStyle;rounded=0;orthogonalLoop=1;jettySize=auto;html=1;exitX=0;exitY=0.5;exitDx=0;exitDy=0;entryX=1;entryY=0.5;entryDx=0;entryDy=0;endArrow=none;endFill=0;" edge="1" parent="1" source="G-jf58LWq5bppQnvcWUJ-289" target="G-jf58LWq5bppQnvcWUJ-236">
          <mxGeometry relative="1" as="geometry" />
        </mxCell>
        <mxCell id="G-jf58LWq5bppQnvcWUJ-289" value="Berisi data" style="shape=rhombus;perimeter=rhombusPerimeter;whiteSpace=wrap;html=1;align=center;" vertex="1" parent="1">
          <mxGeometry x="601.5" y="1010" width="120" height="60" as="geometry" />
        </mxCell>
        <mxCell id="G-jf58LWq5bppQnvcWUJ-268" value="Jenis Pembayaran" style="ellipse;whiteSpace=wrap;html=1;align=center;" vertex="1" parent="1">
          <mxGeometry x="950" y="1175" width="100" height="40" as="geometry" />
        </mxCell>
        <mxCell id="G-jf58LWq5bppQnvcWUJ-298" value="Nama Karyawan" style="ellipse;whiteSpace=wrap;html=1;align=center;" vertex="1" parent="1">
          <mxGeometry x="-400" y="417" width="100" height="40" as="geometry" />
        </mxCell>
        <mxCell id="G-jf58LWq5bppQnvcWUJ-300" style="edgeStyle=orthogonalEdgeStyle;rounded=0;orthogonalLoop=1;jettySize=auto;html=1;exitX=0.25;exitY=1;exitDx=0;exitDy=0;endArrow=none;endFill=0;" edge="1" parent="1" target="G-jf58LWq5bppQnvcWUJ-301">
          <mxGeometry relative="1" as="geometry">
            <mxPoint x="16" y="535" as="sourcePoint" />
          </mxGeometry>
        </mxCell>
        <mxCell id="G-jf58LWq5bppQnvcWUJ-301" value="Nama Karyawan" style="ellipse;whiteSpace=wrap;html=1;align=center;" vertex="1" parent="1">
          <mxGeometry x="-70" y="567" width="100" height="40" as="geometry" />
        </mxCell>
        <mxCell id="G-jf58LWq5bppQnvcWUJ-303" value="Nama Karyawan" style="ellipse;whiteSpace=wrap;html=1;align=center;" vertex="1" parent="1">
          <mxGeometry x="-360" y="-330" width="100" height="40" as="geometry" />
        </mxCell>
        <mxCell id="G-jf58LWq5bppQnvcWUJ-307" value="Nama Karyawan" style="ellipse;whiteSpace=wrap;html=1;align=center;" vertex="1" parent="1">
          <mxGeometry x="466.75" y="855" width="100" height="40" as="geometry" />
        </mxCell>
        <mxCell id="G-jf58LWq5bppQnvcWUJ-309" value="Nama Karyawan" style="ellipse;whiteSpace=wrap;html=1;align=center;" vertex="1" parent="1">
          <mxGeometry x="1030" y="865" width="100" height="40" as="geometry" />
        </mxCell>
        <mxCell id="G-jf58LWq5bppQnvcWUJ-312" value="M" style="text;html=1;align=center;verticalAlign=middle;resizable=0;points=[];autosize=1;strokeColor=#d79b00;fillColor=#ffe6cc;" vertex="1" parent="1">
          <mxGeometry x="-485" y="14" width="30" height="30" as="geometry" />
        </mxCell>
        <mxCell id="G-jf58LWq5bppQnvcWUJ-314" value="1" style="text;html=1;align=center;verticalAlign=middle;resizable=0;points=[];autosize=1;strokeColor=#d79b00;fillColor=#ffe6cc;" vertex="1" parent="1">
          <mxGeometry x="-675" y="1140" width="30" height="30" as="geometry" />
        </mxCell>
        <mxCell id="G-jf58LWq5bppQnvcWUJ-319" value="M" style="text;html=1;align=center;verticalAlign=middle;resizable=0;points=[];autosize=1;strokeColor=#d79b00;fillColor=#ffe6cc;" vertex="1" parent="1">
          <mxGeometry x="-275" y="1135" width="30" height="30" as="geometry" />
        </mxCell>
        <mxCell id="G-jf58LWq5bppQnvcWUJ-321" value="1" style="text;html=1;align=center;verticalAlign=middle;resizable=0;points=[];autosize=1;strokeColor=#d79b00;fillColor=#ffe6cc;" vertex="1" parent="1">
          <mxGeometry x="-30" y="495" width="30" height="30" as="geometry" />
        </mxCell>
        <mxCell id="G-jf58LWq5bppQnvcWUJ-322" value="M" style="text;html=1;align=center;verticalAlign=middle;resizable=0;points=[];autosize=1;strokeColor=#d79b00;fillColor=#ffe6cc;" vertex="1" parent="1">
          <mxGeometry x="307.5" y="462" width="30" height="30" as="geometry" />
        </mxCell>
        <mxCell id="G-jf58LWq5bppQnvcWUJ-323" value="M" style="text;html=1;align=center;verticalAlign=middle;resizable=0;points=[];autosize=1;strokeColor=#d79b00;fillColor=#ffe6cc;" vertex="1" parent="1">
          <mxGeometry x="415" y="718" width="30" height="30" as="geometry" />
        </mxCell>
        <mxCell id="G-jf58LWq5bppQnvcWUJ-324" value="M" style="text;html=1;align=center;verticalAlign=middle;resizable=0;points=[];autosize=1;strokeColor=#d79b00;fillColor=#ffe6cc;" vertex="1" parent="1">
          <mxGeometry x="391.75" y="985" width="30" height="30" as="geometry" />
        </mxCell>
        <mxCell id="G-jf58LWq5bppQnvcWUJ-325" value="M" style="text;html=1;align=center;verticalAlign=middle;resizable=0;points=[];autosize=1;strokeColor=#d79b00;fillColor=#ffe6cc;" vertex="1" parent="1">
          <mxGeometry x="325" y="1315" width="30" height="30" as="geometry" />
        </mxCell>
        <mxCell id="G-jf58LWq5bppQnvcWUJ-326" value="M" style="text;html=1;align=center;verticalAlign=middle;resizable=0;points=[];autosize=1;strokeColor=#d79b00;fillColor=#ffe6cc;" vertex="1" parent="1">
          <mxGeometry x="853" y="1204" width="30" height="30" as="geometry" />
        </mxCell>
        <mxCell id="G-jf58LWq5bppQnvcWUJ-327" value="M" style="text;html=1;align=center;verticalAlign=middle;resizable=0;points=[];autosize=1;strokeColor=#d79b00;fillColor=#ffe6cc;" vertex="1" parent="1">
          <mxGeometry x="655" y="728" width="30" height="30" as="geometry" />
        </mxCell>
        <mxCell id="G-jf58LWq5bppQnvcWUJ-328" value="1" style="text;html=1;align=center;verticalAlign=middle;resizable=0;points=[];autosize=1;strokeColor=#d79b00;fillColor=#ffe6cc;" vertex="1" parent="1">
          <mxGeometry x="668.25" y="386" width="30" height="30" as="geometry" />
        </mxCell>
        <mxCell id="G-jf58LWq5bppQnvcWUJ-329" value="Diakses" style="shape=rhombus;perimeter=rhombusPerimeter;whiteSpace=wrap;html=1;align=center;" vertex="1" parent="1">
          <mxGeometry x="745.5" y="465" width="120" height="60" as="geometry" />
        </mxCell>
        <mxCell id="G-jf58LWq5bppQnvcWUJ-336" value="1" style="text;html=1;align=center;verticalAlign=middle;resizable=0;points=[];autosize=1;strokeColor=#d79b00;fillColor=#ffe6cc;" vertex="1" parent="1">
          <mxGeometry x="1224" y="844" width="30" height="30" as="geometry" />
        </mxCell>
        <mxCell id="G-jf58LWq5bppQnvcWUJ-338" value="M" style="text;html=1;align=center;verticalAlign=middle;resizable=0;points=[];autosize=1;strokeColor=#d79b00;fillColor=#ffe6cc;" vertex="1" parent="1">
          <mxGeometry x="915" y="497" width="30" height="30" as="geometry" />
        </mxCell>
      </root>
    </mxGraphModel>
  </diagram>
</mxfile>
